<?xml version="1.0" encoding="utf-8"?>
<!-- Generator: Adobe Illustrator 24.1.2, SVG Export Plug-In . SVG Version: 6.00 Build 0)  -->
<svg version="1.1" xmlns="http://www.w3.org/2000/svg" xmlns:xlink="http://www.w3.org/1999/xlink" x="0px" y="0px"
	 viewBox="0 0 184.25 255.12" style="enable-background:new 0 0 184.25 255.12;" xml:space="preserve">
<style type="text/css">
	.st0{fill:#C2B59B;}
	.st1{fill:#F7E6A7;}
	.st2{fill:#2457A7;}
	.st3{opacity:0.2;}
	.st4{fill:#140E39;}
	.st5{fill:#9BA6D4;}
	.st6{fill:#2B3990;}
	.st7{fill:#262262;}
	.st8{fill:#2BB673;}
	.st9{fill:#39B54A;}
	.st10{fill:#8DC63F;}
	.st11{fill:#D7DF23;}
</style>
<g id="Layer_4">
	<path class="st0" d="M172.25,255.12H12c-6.6,0-12-5.4-12-12V12C0,5.4,5.4,0,12,0h160.25c6.6,0,12,5.4,12,12v231.12
		C184.25,249.72,178.85,255.12,172.25,255.12z"/>
	<path class="st1" d="M172.25,255.12H12c-6.6,0-12-5.4-12-12V12C0,5.4,5.4,0,12,0h160.25c6.6,0,12,5.4,12,12v231.12
		C184.25,249.72,178.85,255.12,172.25,255.12z"/>
	<path class="st2" d="M12,246.61c-1.9,0-3.5-1.6-3.5-3.5V12c0-1.9,1.6-3.5,3.5-3.5h160.25c1.9,0,3.5,1.6,3.5,3.5v231.12
		c0,1.9-1.6,3.5-3.5,3.5H12z"/>
	<circle class="st1" cx="92.13" cy="128.67" r="89.49"/>
	<g class="st3">
		<polygon class="st2" points="92.13,128.67 86.02,45 86.86,44.95 		"/>
		<polygon class="st2" points="92.13,128.67 91.29,44.79 92.13,44.79 		"/>
		<polygon class="st2" points="92.13,128.67 80.78,45.55 81.61,45.45 		"/>
		<polygon class="st2" points="92.13,128.67 75.58,46.43 76.41,46.27 		"/>
		<polygon class="st2" points="92.13,128.67 70.45,47.63 71.27,47.42 		"/>
		<polygon class="st2" points="92.13,128.67 65.41,49.15 66.2,48.89 		"/>
		<polygon class="st2" points="92.13,128.67 60.47,50.99 61.25,50.68 		"/>
		<polygon class="st2" points="92.13,128.67 55.65,53.13 56.41,52.77 		"/>
		<polygon class="st2" points="92.13,128.67 50.98,55.57 51.72,55.16 		"/>
		<polygon class="st2" points="92.13,128.67 46.47,58.29 47.18,57.84 		"/>
		<polygon class="st2" points="92.13,128.67 42.14,61.3 42.82,60.81 		"/>
		<polygon class="st2" points="92.13,128.67 38.01,64.57 38.66,64.04 		"/>
		<polygon class="st2" points="92.13,128.67 34.09,68.1 34.7,67.52 		"/>
		<polygon class="st2" points="92.13,128.67 30.4,71.86 30.98,71.25 		"/>
		<polygon class="st2" points="92.13,128.67 26.96,75.85 27.49,75.2 		"/>
		<polygon class="st2" points="92.13,128.67 23.77,80.04 24.26,79.36 		"/>
		<polygon class="st2" points="92.13,128.67 20.85,84.43 21.3,83.72 		"/>
		<polygon class="st2" points="92.13,128.67 18.21,88.99 18.62,88.26 		"/>
		<polygon class="st2" points="92.13,128.67 15.87,93.71 16.23,92.95 		"/>
		<polygon class="st2" points="92.13,128.67 13.82,98.57 14.13,97.79 		"/>
		<polygon class="st2" points="92.13,128.67 12.09,103.55 12.35,102.75 		"/>
		<polygon class="st2" points="92.13,128.67 10.67,108.62 10.88,107.81 		"/>
		<polygon class="st2" points="92.13,128.67 9.57,113.78 9.73,112.95 		"/>
		<polygon class="st2" points="92.13,128.67 8.8,118.99 8.91,118.15 		"/>
		<polygon class="st2" points="92.13,128.67 8.36,124.24 8.41,123.4 		"/>
		<polygon class="st2" points="92.13,128.67 8.24,129.51 8.24,128.67 		"/>
		<polygon class="st2" points="92.13,128.67 8.46,134.77 8.41,133.94 		"/>
		<polygon class="st2" points="92.13,128.67 9.01,140.02 8.91,139.18 		"/>
		<polygon class="st2" points="92.13,128.67 9.89,145.21 9.73,144.39 		"/>
		<polygon class="st2" points="92.13,128.67 11.09,150.34 10.88,149.53 		"/>
		<polygon class="st2" points="92.13,128.67 12.61,155.39 12.35,154.59 		"/>
		<polygon class="st2" points="92.13,128.67 14.44,160.33 14.13,159.55 		"/>
		<polygon class="st2" points="92.13,128.67 16.58,165.14 16.23,164.38 		"/>
		<polygon class="st2" points="92.13,128.67 19.02,169.82 18.62,169.08 		"/>
		<polygon class="st2" points="92.13,128.67 21.75,174.32 21.3,173.61 		"/>
		<polygon class="st2" points="92.13,128.67 24.76,178.65 24.26,177.97 		"/>
		<polygon class="st2" points="92.13,128.67 28.03,182.78 27.49,182.14 		"/>
		<polygon class="st2" points="92.13,128.67 31.55,186.7 30.98,186.09 		"/>
		<polygon class="st2" points="92.13,128.67 35.32,190.39 34.7,189.82 		"/>
		<polygon class="st2" points="92.13,128.67 39.3,193.84 38.66,193.3 		"/>
		<polygon class="st2" points="92.13,128.67 43.5,197.02 42.82,196.53 		"/>
		<polygon class="st2" points="92.13,128.67 47.89,199.94 47.18,199.49 		"/>
		<polygon class="st2" points="92.13,128.67 52.45,202.58 51.72,202.17 		"/>
		<polygon class="st2" points="92.13,128.67 57.17,204.93 56.41,204.57 		"/>
		<polygon class="st2" points="92.13,128.67 62.03,206.97 61.25,206.66 		"/>
		<polygon class="st2" points="92.13,128.67 67,208.7 66.2,208.44 		"/>
		<polygon class="st2" points="92.13,128.67 72.08,210.12 71.27,209.92 		"/>
		<polygon class="st2" points="92.13,128.67 77.23,211.22 76.41,211.06 		"/>
		<polygon class="st2" points="92.13,128.67 82.45,211.99 81.61,211.89 		"/>
		<polygon class="st2" points="92.13,128.67 87.7,212.44 86.86,212.38 		"/>
		<polygon class="st2" points="92.13,128.67 92.97,212.55 92.13,212.55 		"/>
		<polygon class="st2" points="92.13,128.67 98.23,212.33 97.39,212.38 		"/>
		<polygon class="st2" points="92.13,128.67 103.47,211.78 102.64,211.89 		"/>
		<polygon class="st2" points="92.13,128.67 108.67,210.91 107.84,211.06 		"/>
		<polygon class="st2" points="92.13,128.67 113.8,209.71 112.99,209.92 		"/>
		<polygon class="st2" points="92.13,128.67 118.85,208.19 118.05,208.44 		"/>
		<polygon class="st2" points="92.13,128.67 123.79,206.35 123.01,206.66 		"/>
		<polygon class="st2" points="92.13,128.67 128.6,204.21 127.84,204.57 		"/>
		<polygon class="st2" points="92.13,128.67 133.27,201.77 132.54,202.17 		"/>
		<polygon class="st2" points="92.13,128.67 137.78,199.04 137.07,199.49 		"/>
		<polygon class="st2" points="92.13,128.67 142.11,196.04 141.43,196.53 		"/>
		<polygon class="st2" points="92.13,128.67 146.24,192.76 145.59,193.3 		"/>
		<polygon class="st2" points="92.13,128.67 150.16,189.24 149.55,189.82 		"/>
		<polygon class="st2" points="92.13,128.67 153.85,185.48 153.27,186.09 		"/>
		<polygon class="st2" points="92.13,128.67 157.29,181.49 156.76,182.14 		"/>
		<polygon class="st2" points="92.13,128.67 160.48,177.29 159.99,177.97 		"/>
		<polygon class="st2" points="92.13,128.67 163.4,172.9 162.95,173.61 		"/>
		<polygon class="st2" points="92.13,128.67 166.04,168.34 165.63,169.08 		"/>
		<polygon class="st2" points="92.13,128.67 168.38,163.62 168.02,164.38 		"/>
		<polygon class="st2" points="92.13,128.67 170.43,158.77 170.12,159.55 		"/>
		<polygon class="st2" points="92.13,128.67 172.16,153.79 171.9,154.59 		"/>
		<polygon class="st2" points="92.13,128.67 173.58,148.71 173.37,149.53 		"/>
		<polygon class="st2" points="92.13,128.67 174.68,143.56 174.52,144.39 		"/>
		<polygon class="st2" points="92.13,128.67 175.45,138.35 175.35,139.18 		"/>
		<polygon class="st2" points="92.13,128.67 175.9,133.1 175.84,133.94 		"/>
		<polygon class="st2" points="92.13,128.67 176.01,127.83 176.01,128.67 		"/>
		<polygon class="st2" points="92.13,128.67 175.79,122.56 175.84,123.4 		"/>
		<polygon class="st2" points="92.13,128.67 175.24,117.32 175.35,118.15 		"/>
		<polygon class="st2" points="92.13,128.67 174.37,112.12 174.52,112.95 		"/>
		<polygon class="st2" points="92.13,128.67 173.16,106.99 173.37,107.81 		"/>
		<polygon class="st2" points="92.13,128.67 171.64,101.95 171.9,102.75 		"/>
		<polygon class="st2" points="92.13,128.67 169.81,97.01 170.12,97.79 		"/>
		<polygon class="st2" points="92.13,128.67 167.67,92.19 168.02,92.95 		"/>
		<polygon class="st2" points="92.13,128.67 165.23,87.52 165.63,88.26 		"/>
		<polygon class="st2" points="92.13,128.67 162.5,83.01 162.95,83.72 		"/>
		<polygon class="st2" points="92.13,128.67 159.49,78.68 159.99,79.36 		"/>
		<polygon class="st2" points="92.13,128.67 156.22,74.55 156.76,75.2 		"/>
		<polygon class="st2" points="92.13,128.67 152.7,70.63 153.27,71.25 		"/>
		<polygon class="st2" points="92.13,128.67 148.93,66.95 149.55,67.52 		"/>
		<polygon class="st2" points="92.13,128.67 144.95,63.5 145.59,64.04 		"/>
		<polygon class="st2" points="92.13,128.67 140.75,60.31 141.43,60.81 		"/>
		<polygon class="st2" points="92.13,128.67 136.36,57.39 137.07,57.84 		"/>
		<polygon class="st2" points="92.13,128.67 131.8,54.76 132.54,55.16 		"/>
		<polygon class="st2" points="92.13,128.67 127.08,52.41 127.84,52.77 		"/>
		<polygon class="st2" points="92.13,128.67 122.22,50.37 123.01,50.68 		"/>
		<polygon class="st2" points="92.13,128.67 117.25,48.63 118.05,48.89 		"/>
		<polygon class="st2" points="92.13,128.67 112.17,47.21 112.99,47.42 		"/>
		<polygon class="st2" points="92.13,128.67 107.02,46.11 107.84,46.27 		"/>
		<polygon class="st2" points="92.13,128.67 101.81,45.34 102.64,45.45 		"/>
		<polygon class="st2" points="92.13,128.67 96.55,44.9 97.39,44.95 		"/>
	</g>
	<g class="st3">
		<polygon class="st2" points="92.13,128.67 87.95,46.37 88.77,46.34 		"/>
		<polygon class="st2" points="92.13,128.67 93.12,46.27 93.95,46.29 		"/>
		<polygon class="st2" points="92.13,128.67 82.79,46.8 83.61,46.71 		"/>
		<polygon class="st2" points="92.13,128.67 77.67,47.55 78.48,47.41 		"/>
		<polygon class="st2" points="92.13,128.67 72.6,48.61 73.4,48.43 		"/>
		<polygon class="st2" points="92.13,128.67 67.61,50 68.4,49.76 		"/>
		<polygon class="st2" points="92.13,128.67 62.72,51.69 63.49,51.41 		"/>
		<polygon class="st2" points="92.13,128.67 57.95,53.69 58.7,53.36 		"/>
		<polygon class="st2" points="92.13,128.67 53.31,55.99 54.04,55.6 		"/>
		<polygon class="st2" points="92.13,128.67 48.82,58.57 49.52,58.14 		"/>
		<polygon class="st2" points="92.13,128.67 44.5,61.42 45.18,60.95 		"/>
		<polygon class="st2" points="92.13,128.67 40.37,64.55 41.02,64.03 		"/>
		<polygon class="st2" points="92.13,128.67 36.45,67.92 37.06,67.37 		"/>
		<polygon class="st2" points="92.13,128.67 32.74,71.54 33.32,70.95 		"/>
		<polygon class="st2" points="92.13,128.67 29.27,75.38 29.82,74.76 		"/>
		<polygon class="st2" points="92.13,128.67 26.05,79.43 26.55,78.77 		"/>
		<polygon class="st2" points="92.13,128.67 23.09,83.68 23.55,82.99 		"/>
		<polygon class="st2" points="92.13,128.67 20.4,88.1 20.82,87.39 		"/>
		<polygon class="st2" points="92.13,128.67 18,92.68 18.37,91.95 		"/>
		<polygon class="st2" points="92.13,128.67 15.88,97.41 16.2,96.65 		"/>
		<polygon class="st2" points="92.13,128.67 14.07,102.26 14.34,101.48 		"/>
		<polygon class="st2" points="92.13,128.67 12.57,107.21 12.79,106.42 		"/>
		<polygon class="st2" points="92.13,128.67 11.38,112.25 11.55,111.44 		"/>
		<polygon class="st2" points="92.13,128.67 10.51,117.35 10.63,116.54 		"/>
		<polygon class="st2" points="92.13,128.67 9.96,122.5 10.03,121.68 		"/>
		<polygon class="st2" points="92.13,128.67 9.73,127.67 9.75,126.85 		"/>
		<polygon class="st2" points="92.13,128.67 9.83,132.85 9.8,132.02 		"/>
		<polygon class="st2" points="92.13,128.67 10.26,138.01 10.17,137.19 		"/>
		<polygon class="st2" points="92.13,128.67 11,143.13 10.87,142.31 		"/>
		<polygon class="st2" points="92.13,128.67 12.07,148.19 11.88,147.39 		"/>
		<polygon class="st2" points="92.13,128.67 13.46,153.18 13.22,152.39 		"/>
		<polygon class="st2" points="92.13,128.67 15.15,158.07 14.86,157.3 		"/>
		<polygon class="st2" points="92.13,128.67 17.15,162.85 16.81,162.09 		"/>
		<polygon class="st2" points="92.13,128.67 19.44,167.49 19.06,166.76 		"/>
		<polygon class="st2" points="92.13,128.67 22.02,171.98 21.6,171.27 		"/>
		<polygon class="st2" points="92.13,128.67 24.88,176.29 24.41,175.61 		"/>
		<polygon class="st2" points="92.13,128.67 28,180.42 27.49,179.77 		"/>
		<polygon class="st2" points="92.13,128.67 31.38,184.34 30.83,183.73 		"/>
		<polygon class="st2" points="92.13,128.67 35,188.05 34.41,187.47 		"/>
		<polygon class="st2" points="92.13,128.67 38.84,191.52 38.21,190.98 		"/>
		<polygon class="st2" points="92.13,128.67 42.89,194.74 42.23,194.24 		"/>
		<polygon class="st2" points="92.13,128.67 47.14,197.7 46.45,197.24 		"/>
		<polygon class="st2" points="92.13,128.67 51.56,200.39 50.84,199.98 		"/>
		<polygon class="st2" points="92.13,128.67 56.14,202.8 55.4,202.43 		"/>
		<polygon class="st2" points="92.13,128.67 60.87,204.91 60.11,204.59 		"/>
		<polygon class="st2" points="92.13,128.67 65.72,206.72 64.94,206.45 		"/>
		<polygon class="st2" points="92.13,128.67 70.67,208.23 69.88,208 		"/>
		<polygon class="st2" points="92.13,128.67 75.71,209.42 74.9,209.24 		"/>
		<polygon class="st2" points="92.13,128.67 80.81,210.29 79.99,210.17 		"/>
		<polygon class="st2" points="92.13,128.67 85.96,210.84 85.14,210.77 		"/>
		<polygon class="st2" points="92.13,128.67 91.13,211.06 90.3,211.04 		"/>
		<polygon class="st2" points="92.13,128.67 96.31,210.96 95.48,211 		"/>
		<polygon class="st2" points="92.13,128.67 101.46,210.54 100.64,210.62 		"/>
		<polygon class="st2" points="92.13,128.67 106.59,209.79 105.77,209.93 		"/>
		<polygon class="st2" points="92.13,128.67 111.65,208.72 110.85,208.91 		"/>
		<polygon class="st2" points="92.13,128.67 116.64,207.34 115.85,207.58 		"/>
		<polygon class="st2" points="92.13,128.67 121.53,205.64 120.76,205.93 		"/>
		<polygon class="st2" points="92.13,128.67 126.31,203.65 125.55,203.98 		"/>
		<polygon class="st2" points="92.13,128.67 130.95,201.35 130.21,201.73 		"/>
		<polygon class="st2" points="92.13,128.67 135.43,198.77 134.73,199.2 		"/>
		<polygon class="st2" points="92.13,128.67 139.75,195.91 139.07,196.38 		"/>
		<polygon class="st2" points="92.13,128.67 143.88,192.79 143.23,193.3 		"/>
		<polygon class="st2" points="92.13,128.67 147.8,189.41 147.19,189.96 		"/>
		<polygon class="st2" points="92.13,128.67 151.51,185.8 150.93,186.39 		"/>
		<polygon class="st2" points="92.13,128.67 154.98,181.96 154.44,182.58 		"/>
		<polygon class="st2" points="92.13,128.67 158.2,177.9 157.7,178.56 		"/>
		<polygon class="st2" points="92.13,128.67 161.16,173.66 160.7,174.35 		"/>
		<polygon class="st2" points="92.13,128.67 163.85,169.24 163.44,169.95 		"/>
		<polygon class="st2" points="92.13,128.67 166.25,164.65 165.89,165.39 		"/>
		<polygon class="st2" points="92.13,128.67 168.37,159.93 168.05,160.69 		"/>
		<polygon class="st2" points="92.13,128.67 170.18,155.08 169.91,155.86 		"/>
		<polygon class="st2" points="92.13,128.67 171.68,150.12 171.46,150.92 		"/>
		<polygon class="st2" points="92.13,128.67 172.87,145.09 172.7,145.89 		"/>
		<polygon class="st2" points="92.13,128.67 173.75,139.98 173.62,140.8 		"/>
		<polygon class="st2" points="92.13,128.67 174.3,134.84 174.23,135.66 		"/>
		<polygon class="st2" points="92.13,128.67 174.52,129.66 174.5,130.49 		"/>
		<polygon class="st2" points="92.13,128.67 174.42,124.49 174.45,125.31 		"/>
		<polygon class="st2" points="92.13,128.67 174,119.33 174.08,120.15 		"/>
		<polygon class="st2" points="92.13,128.67 173.25,114.21 173.38,115.02 		"/>
		<polygon class="st2" points="92.13,128.67 172.18,109.14 172.37,109.95 		"/>
		<polygon class="st2" points="92.13,128.67 170.8,104.15 171.03,104.94 		"/>
		<polygon class="st2" points="92.13,128.67 169.1,99.26 169.39,100.04 		"/>
		<polygon class="st2" points="92.13,128.67 167.1,94.49 167.44,95.24 		"/>
		<polygon class="st2" points="92.13,128.67 164.81,89.85 165.19,90.58 		"/>
		<polygon class="st2" points="92.13,128.67 162.23,85.36 162.65,86.07 		"/>
		<polygon class="st2" points="92.13,128.67 159.37,81.04 159.84,81.72 		"/>
		<polygon class="st2" points="92.13,128.67 156.25,76.92 156.76,77.56 		"/>
		<polygon class="st2" points="92.13,128.67 152.87,72.99 153.42,73.61 		"/>
		<polygon class="st2" points="92.13,128.67 149.26,69.29 149.84,69.87 		"/>
		<polygon class="st2" points="92.13,128.67 145.41,65.82 146.04,66.36 		"/>
		<polygon class="st2" points="92.13,128.67 141.36,62.6 142.02,63.09 		"/>
		<polygon class="st2" points="92.13,128.67 137.12,59.63 137.8,60.09 		"/>
		<polygon class="st2" points="92.13,128.67 132.69,56.95 133.41,57.36 		"/>
		<polygon class="st2" points="92.13,128.67 128.11,54.54 128.85,54.91 		"/>
		<polygon class="st2" points="92.13,128.67 123.38,52.43 124.14,52.75 		"/>
		<polygon class="st2" points="92.13,128.67 118.53,50.61 119.31,50.89 		"/>
		<polygon class="st2" points="92.13,128.67 113.58,49.11 114.38,49.33 		"/>
		<polygon class="st2" points="92.13,128.67 108.54,47.92 109.35,48.09 		"/>
		<polygon class="st2" points="92.13,128.67 103.44,47.05 104.26,47.17 		"/>
		<polygon class="st2" points="92.13,128.67 98.29,46.5 99.12,46.57 		"/>
	</g>
	<g class="st3">
		<polygon class="st2" points="92.13,128.67 89.6,46.31 90.43,46.29 		"/>
		<polygon class="st2" points="92.13,128.67 94.78,46.31 95.6,46.35 		"/>
		<polygon class="st2" points="92.13,128.67 84.44,46.63 85.26,46.56 		"/>
		<polygon class="st2" points="92.13,128.67 79.3,47.27 80.12,47.15 		"/>
		<polygon class="st2" points="92.13,128.67 74.21,48.24 75.02,48.07 		"/>
		<polygon class="st2" points="92.13,128.67 69.2,49.52 69.99,49.3 		"/>
		<polygon class="st2" points="92.13,128.67 64.27,51.12 65.05,50.85 		"/>
		<polygon class="st2" points="92.13,128.67 59.46,53.02 60.22,52.7 		"/>
		<polygon class="st2" points="92.13,128.67 54.77,55.22 55.51,54.85 		"/>
		<polygon class="st2" points="92.13,128.67 50.24,57.71 50.95,57.3 		"/>
		<polygon class="st2" points="92.13,128.67 45.86,60.48 46.55,60.02 		"/>
		<polygon class="st2" points="92.13,128.67 41.67,63.52 42.33,63.02 		"/>
		<polygon class="st2" points="92.13,128.67 37.68,66.82 38.31,66.28 		"/>
		<polygon class="st2" points="92.13,128.67 33.91,70.36 34.5,69.78 		"/>
		<polygon class="st2" points="92.13,128.67 30.36,74.13 30.91,73.51 		"/>
		<polygon class="st2" points="92.13,128.67 27.06,78.11 27.57,77.47 		"/>
		<polygon class="st2" points="92.13,128.67 24.01,82.3 24.48,81.62 		"/>
		<polygon class="st2" points="92.13,128.67 21.23,86.67 21.66,85.96 		"/>
		<polygon class="st2" points="92.13,128.67 18.74,91.2 19.12,90.47 		"/>
		<polygon class="st2" points="92.13,128.67 16.53,95.88 16.86,95.13 		"/>
		<polygon class="st2" points="92.13,128.67 14.62,100.7 14.91,99.92 		"/>
		<polygon class="st2" points="92.13,128.67 13.02,105.62 13.25,104.83 		"/>
		<polygon class="st2" points="92.13,128.67 11.72,110.63 11.91,109.83 		"/>
		<polygon class="st2" points="92.13,128.67 10.75,115.71 10.89,114.9 		"/>
		<polygon class="st2" points="92.13,128.67 10.1,120.85 10.18,120.03 		"/>
		<polygon class="st2" points="92.13,128.67 9.77,126.02 9.8,125.19 		"/>
		<polygon class="st2" points="92.13,128.67 9.76,131.19 9.75,130.37 		"/>
		<polygon class="st2" points="92.13,128.67 10.08,136.36 10.02,135.54 		"/>
		<polygon class="st2" points="92.13,128.67 10.73,141.49 10.61,140.68 		"/>
		<polygon class="st2" points="92.13,128.67 11.7,146.58 11.52,145.77 		"/>
		<polygon class="st2" points="92.13,128.67 12.98,151.6 12.76,150.8 		"/>
		<polygon class="st2" points="92.13,128.67 14.57,156.52 14.3,155.74 		"/>
		<polygon class="st2" points="92.13,128.67 16.48,161.33 16.16,160.57 		"/>
		<polygon class="st2" points="92.13,128.67 18.68,166.02 18.31,165.28 		"/>
		<polygon class="st2" points="92.13,128.67 21.17,170.56 20.75,169.84 		"/>
		<polygon class="st2" points="92.13,128.67 23.94,174.93 23.48,174.24 		"/>
		<polygon class="st2" points="92.13,128.67 26.98,179.12 26.48,178.46 		"/>
		<polygon class="st2" points="92.13,128.67 30.27,183.11 29.73,182.49 		"/>
		<polygon class="st2" points="92.13,128.67 33.81,186.89 33.24,186.3 		"/>
		<polygon class="st2" points="92.13,128.67 37.58,190.44 36.97,189.88 		"/>
		<polygon class="st2" points="92.13,128.67 41.57,193.74 40.92,193.22 		"/>
		<polygon class="st2" points="92.13,128.67 45.76,196.78 45.08,196.31 		"/>
		<polygon class="st2" points="92.13,128.67 50.12,199.56 49.42,199.13 		"/>
		<polygon class="st2" points="92.13,128.67 54.66,202.06 53.93,201.68 		"/>
		<polygon class="st2" points="92.13,128.67 59.34,204.27 58.59,203.93 		"/>
		<polygon class="st2" points="92.13,128.67 64.15,206.18 63.38,205.89 		"/>
		<polygon class="st2" points="92.13,128.67 69.07,207.78 68.28,207.54 		"/>
		<polygon class="st2" points="92.13,128.67 74.09,209.07 73.28,208.88 		"/>
		<polygon class="st2" points="92.13,128.67 79.17,210.04 78.36,209.91 		"/>
		<polygon class="st2" points="92.13,128.67 84.31,210.7 83.49,210.61 		"/>
		<polygon class="st2" points="92.13,128.67 89.47,211.03 88.65,210.99 		"/>
		<polygon class="st2" points="92.13,128.67 94.65,211.03 93.82,211.05 		"/>
		<polygon class="st2" points="92.13,128.67 99.82,210.71 98.99,210.78 		"/>
		<polygon class="st2" points="92.13,128.67 104.95,210.06 104.14,210.18 		"/>
		<polygon class="st2" points="92.13,128.67 110.04,209.1 109.23,209.27 		"/>
		<polygon class="st2" points="92.13,128.67 115.05,207.82 114.26,208.04 		"/>
		<polygon class="st2" points="92.13,128.67 119.98,206.22 119.2,206.49 		"/>
		<polygon class="st2" points="92.13,128.67 124.79,204.32 124.03,204.64 		"/>
		<polygon class="st2" points="92.13,128.67 129.48,202.12 128.74,202.48 		"/>
		<polygon class="st2" points="92.13,128.67 134.02,199.63 133.3,200.04 		"/>
		<polygon class="st2" points="92.13,128.67 138.39,196.86 137.7,197.31 		"/>
		<polygon class="st2" points="92.13,128.67 142.58,193.82 141.92,194.32 		"/>
		<polygon class="st2" points="92.13,128.67 146.57,190.52 145.94,191.06 		"/>
		<polygon class="st2" points="92.13,128.67 150.35,186.98 149.76,187.56 		"/>
		<polygon class="st2" points="92.13,128.67 153.89,183.21 153.34,183.82 		"/>
		<polygon class="st2" points="92.13,128.67 157.2,179.22 156.68,179.87 		"/>
		<polygon class="st2" points="92.13,128.67 160.24,175.04 159.77,175.72 		"/>
		<polygon class="st2" points="92.13,128.67 163.02,170.67 162.59,171.38 		"/>
		<polygon class="st2" points="92.13,128.67 165.52,166.13 165.13,166.87 		"/>
		<polygon class="st2" points="92.13,128.67 167.72,161.45 167.39,162.21 		"/>
		<polygon class="st2" points="92.13,128.67 169.63,156.64 169.35,157.41 		"/>
		<polygon class="st2" points="92.13,128.67 171.24,151.72 171,152.51 		"/>
		<polygon class="st2" points="92.13,128.67 172.53,146.71 172.34,147.51 		"/>
		<polygon class="st2" points="92.13,128.67 173.5,141.62 173.36,142.44 		"/>
		<polygon class="st2" points="92.13,128.67 174.15,136.49 174.07,137.31 		"/>
		<polygon class="st2" points="92.13,128.67 174.48,131.32 174.45,132.15 		"/>
		<polygon class="st2" points="92.13,128.67 174.49,126.14 174.51,126.97 		"/>
		<polygon class="st2" points="92.13,128.67 174.17,120.98 174.24,121.8 		"/>
		<polygon class="st2" points="92.13,128.67 173.52,115.84 173.64,116.66 		"/>
		<polygon class="st2" points="92.13,128.67 172.56,110.76 172.73,111.56 		"/>
		<polygon class="st2" points="92.13,128.67 171.27,105.74 171.49,106.54 		"/>
		<polygon class="st2" points="92.13,128.67 169.68,100.82 169.95,101.6 		"/>
		<polygon class="st2" points="92.13,128.67 167.78,96 168.09,96.76 		"/>
		<polygon class="st2" points="92.13,128.67 165.57,91.32 165.94,92.06 		"/>
		<polygon class="st2" points="92.13,128.67 163.08,86.78 163.5,87.49 		"/>
		<polygon class="st2" points="92.13,128.67 160.31,82.41 160.77,83.09 		"/>
		<polygon class="st2" points="92.13,128.67 157.27,78.22 157.77,78.87 		"/>
		<polygon class="st2" points="92.13,128.67 153.98,74.22 154.52,74.85 		"/>
		<polygon class="st2" points="92.13,128.67 150.44,70.45 151.02,71.04 		"/>
		<polygon class="st2" points="92.13,128.67 146.67,66.9 147.28,67.45 		"/>
		<polygon class="st2" points="92.13,128.67 142.68,63.6 143.33,64.11 		"/>
		<polygon class="st2" points="92.13,128.67 138.5,60.55 139.17,61.02 		"/>
		<polygon class="st2" points="92.13,128.67 134.13,57.78 134.83,58.2 		"/>
		<polygon class="st2" points="92.13,128.67 129.59,55.28 130.32,55.66 		"/>
		<polygon class="st2" points="92.13,128.67 124.91,53.07 125.66,53.41 		"/>
		<polygon class="st2" points="92.13,128.67 120.1,51.16 120.87,51.45 		"/>
		<polygon class="st2" points="92.13,128.67 115.18,49.56 115.97,49.8 		"/>
		<polygon class="st2" points="92.13,128.67 110.16,48.27 110.97,48.45 		"/>
		<polygon class="st2" points="92.13,128.67 105.08,47.29 105.89,47.43 		"/>
		<polygon class="st2" points="92.13,128.67 99.94,46.64 100.77,46.73 		"/>
	</g>
</g>
<g id="Geometry">
	<polygon class="st4" points="112.22,69.39 92.13,145.51 72.03,69.39 38.46,82.98 48.4,175.55 48.4,187.25 135.86,187.25 
		135.86,175.55 145.79,82.98 	"/>
	<g>
		<path d="M35.84,33.6c0,0.27-0.13,0.4-0.38,0.4h-4.6c-0.25,0-0.38-0.15-0.38-0.45c0-0.88,0.03-2.19,0.1-3.94s0.1-3.06,0.1-3.94
			c0-0.25-0.04-0.39-0.12-0.4c-0.1,0.05-0.68,1.39-1.74,4.02c-0.62,1.54-1.25,3.08-1.87,4.61c-0.09,0.2-0.2,0.32-0.33,0.35
			c-0.04,0.01-0.22,0.01-0.52,0.01c-0.45,0-0.72-0.09-0.81-0.26c-0.47-0.95-1.08-2.34-1.85-4.16c-0.81-1.92-1.42-3.31-1.83-4.17
			c-0.02-0.04-0.06-0.09-0.12-0.14c-0.06,0.08-0.09,0.2-0.09,0.38c0,0.85,0.02,2.12,0.06,3.82c0.04,1.7,0.06,2.97,0.06,3.82
			c0,0.3-0.12,0.45-0.36,0.45h-4.34c-0.17,0-0.28-0.03-0.32-0.08c-0.04-0.06-0.06-0.15-0.06-0.29c0-0.94,0.05-2.36,0.14-4.26
			c0.09-1.89,0.14-3.31,0.14-4.25c0-1-0.04-2.89-0.13-5.65c-0.01-0.72-0.05-1.79-0.12-3.21l-0.01-0.22
			c-0.01-0.17,0.17-0.26,0.55-0.26c0.48,0,1.19-0.02,2.14-0.05c0.95-0.03,1.67-0.05,2.14-0.05c0.1,0,0.23,0.18,0.4,0.55l3.79,8.33
			c0.27,0.56,0.49,0.84,0.68,0.84c0.1,0,0.3-0.32,0.61-0.97c0.88-1.82,2.17-4.56,3.89-8.22c0.15-0.34,0.31-0.51,0.48-0.51
			c0.25,0,0.63,0.01,1.14,0.04c0.51,0.03,0.89,0.04,1.15,0.04c0.22,0,0.55-0.02,0.99-0.06s0.78-0.06,0.99-0.06
			c0.26,0,0.39,0.1,0.39,0.31c0,1.02-0.04,2.55-0.11,4.58s-0.11,3.56-0.11,4.58c0,0.94,0.04,2.36,0.12,4.25
			C35.8,31.26,35.84,32.67,35.84,33.6z"/>
	</g>
	<polygon class="st1" points="92.13,83.97 79.73,98.56 92.13,145.51 104.52,98.56 	"/>
	<polygon class="st5" points="72.03,69.39 79.73,98.56 92.13,83.97 	"/>
	<polygon class="st5" points="112.22,69.39 104.52,98.56 92.13,83.97 	"/>
	<polygon class="st6" points="97.31,90.08 92.13,83.97 86.94,90.08 89.53,95.15 86.94,125.86 92.13,145.51 97.31,125.86 
		94.72,95.15 	"/>
	<polygon class="st7" points="73.68,75.63 51.98,87.42 92.13,145.51 	"/>
	<polygon class="st7" points="73.68,75.63 58.37,83.96 52.43,77.32 72.03,69.39 	"/>
	<polygon class="st7" points="110.6,75.63 125.91,83.96 131.85,77.32 112.25,69.39 	"/>
	<polygon class="st7" points="110.6,75.63 132.29,87.42 92.15,145.51 	"/>
	<line class="st8" x1="131.85" y1="77.32" x2="112.25" y2="69.39"/>
	<g>
		<path class="st9" d="M45.87,79.98l-4.88,1.98c4.06,49.83,44.51,91.46,94.86,93.59l0.54-4.99
			C87.89,168.67,48.99,128.15,45.87,79.98z"/>
		<path class="st10" d="M136.39,170.56l0.57-5.28c-46.54-1.62-83.79-40.98-85.9-87.4l-5.19,2.1
			C48.99,128.15,87.89,168.67,136.39,170.56z"/>
		<path class="st11" d="M56.6,75.63l-5.54,2.25c2.11,46.41,39.36,85.77,85.9,87.4l0.6-5.6C93.09,158.33,57.58,120.19,56.6,75.63z"/>
	</g>
	<g>
		<path d="M147.81,221.51c0-0.27,0.13-0.4,0.38-0.4h4.6c0.25,0,0.38,0.15,0.38,0.46c0,0.88-0.03,2.19-0.1,3.94
			c-0.07,1.75-0.1,3.06-0.1,3.94c0,0.25,0.04,0.39,0.12,0.4c0.09-0.05,0.68-1.39,1.74-4.02c0.62-1.54,1.25-3.08,1.87-4.61
			c0.09-0.2,0.2-0.32,0.33-0.35c0.04-0.01,0.22-0.01,0.52-0.01c0.45,0,0.72,0.09,0.81,0.26c0.47,0.95,1.08,2.34,1.85,4.16
			c0.81,1.92,1.42,3.31,1.83,4.17c0.02,0.04,0.06,0.09,0.12,0.14c0.06-0.08,0.09-0.2,0.09-0.38c0-0.85-0.02-2.12-0.06-3.82
			s-0.07-2.97-0.07-3.82c0-0.3,0.12-0.46,0.36-0.46h4.34c0.17,0,0.28,0.03,0.32,0.08c0.04,0.06,0.06,0.15,0.06,0.29
			c0,0.94-0.05,2.36-0.14,4.26c-0.09,1.89-0.14,3.31-0.14,4.25c0,1,0.04,2.89,0.13,5.65c0.01,0.72,0.05,1.79,0.12,3.21l0.01,0.22
			c0.01,0.17-0.17,0.26-0.54,0.26c-0.48,0-1.19,0.01-2.14,0.04s-1.67,0.04-2.14,0.04c-0.09,0-0.23-0.18-0.4-0.54l-3.79-8.33
			c-0.27-0.56-0.49-0.85-0.68-0.85c-0.09,0-0.3,0.33-0.61,0.97c-0.88,1.82-2.17,4.56-3.88,8.22c-0.15,0.34-0.31,0.51-0.48,0.51
			c-0.25,0-0.63-0.01-1.14-0.04c-0.51-0.03-0.89-0.04-1.15-0.04c-0.22,0-0.55,0.02-0.99,0.06s-0.78,0.06-0.99,0.06
			c-0.26,0-0.39-0.1-0.39-0.31c0-1.02,0.04-2.55,0.11-4.58s0.11-3.56,0.11-4.58c0-0.94-0.04-2.36-0.12-4.25
			C147.85,223.86,147.81,222.45,147.81,221.51z"/>
	</g>
</g>
</svg>
