<?xml version="1.0" encoding="utf-8"?>
<!-- Generator: Adobe Illustrator 24.1.2, SVG Export Plug-In . SVG Version: 6.00 Build 0)  -->
<svg version="1.1" xmlns="http://www.w3.org/2000/svg" xmlns:xlink="http://www.w3.org/1999/xlink" x="0px" y="0px"
	 viewBox="0 0 184.25 255.12" style="enable-background:new 0 0 184.25 255.12;" xml:space="preserve">
<style type="text/css">
	.st0{fill:#C2B59B;}
	.st1{fill:#F7E6A7;}
	.st2{fill:#CCC85D;}
	.st3{opacity:0.2;}
	.st4{fill:#282829;}
	.st5{clip-path:url(#SVGID_2_);fill:#A0A1A3;}
	.st6{clip-path:url(#SVGID_2_);fill:#45547D;}
	.st7{clip-path:url(#SVGID_2_);}
	.st8{fill:#82AA5C;}
	.st9{fill:#70944F;}
	.st10{clip-path:url(#SVGID_2_);fill:#BF3541;}
	.st11{clip-path:url(#SVGID_2_);fill:#92333A;}
	.st12{clip-path:url(#SVGID_2_);fill:#D1D3D4;}
	.st13{clip-path:url(#SVGID_2_);fill:#2E3A56;}
	.st14{clip-path:url(#SVGID_2_);fill:#263456;}
</style>
<g id="Layer_4">
</g>
<g id="Geometry">
	<g>
		<path class="st0" d="M172.25,255.12H12c-6.6,0-12-5.4-12-12V12C0,5.4,5.4,0,12,0h160.25c6.6,0,12,5.4,12,12v231.12
			C184.25,249.72,178.85,255.12,172.25,255.12z"/>
		<path class="st1" d="M172.25,255.12H12c-6.6,0-12-5.4-12-12V12C0,5.4,5.4,0,12,0h160.25c6.6,0,12,5.4,12,12v231.12
			C184.25,249.72,178.85,255.12,172.25,255.12z"/>
		<path class="st2" d="M12,246.61c-1.9,0-3.5-1.6-3.5-3.5V12c0-1.9,1.6-3.5,3.5-3.5h160.25c1.9,0,3.5,1.6,3.5,3.5v231.12
			c0,1.9-1.6,3.5-3.5,3.5H12z"/>
		<circle class="st1" cx="92.13" cy="128.67" r="89.49"/>
		<g class="st3">
			<polygon class="st2" points="92.13,128.67 86.02,45 86.86,44.95 			"/>
			<polygon class="st2" points="92.13,128.67 91.29,44.79 92.13,44.79 			"/>
			<polygon class="st2" points="92.13,128.67 80.78,45.55 81.61,45.45 			"/>
			<polygon class="st2" points="92.13,128.67 75.58,46.43 76.41,46.27 			"/>
			<polygon class="st2" points="92.13,128.67 70.45,47.63 71.27,47.42 			"/>
			<polygon class="st2" points="92.13,128.67 65.41,49.15 66.2,48.89 			"/>
			<polygon class="st2" points="92.13,128.67 60.47,50.99 61.25,50.68 			"/>
			<polygon class="st2" points="92.13,128.67 55.65,53.13 56.41,52.77 			"/>
			<polygon class="st2" points="92.13,128.67 50.98,55.57 51.72,55.16 			"/>
			<polygon class="st2" points="92.13,128.67 46.47,58.29 47.18,57.84 			"/>
			<polygon class="st2" points="92.13,128.67 42.14,61.3 42.82,60.81 			"/>
			<polygon class="st2" points="92.13,128.67 38.01,64.57 38.66,64.04 			"/>
			<polygon class="st2" points="92.13,128.67 34.09,68.1 34.7,67.52 			"/>
			<polygon class="st2" points="92.13,128.67 30.4,71.86 30.98,71.25 			"/>
			<polygon class="st2" points="92.13,128.67 26.96,75.85 27.49,75.2 			"/>
			<polygon class="st2" points="92.13,128.67 23.77,80.04 24.26,79.36 			"/>
			<polygon class="st2" points="92.13,128.67 20.85,84.43 21.3,83.72 			"/>
			<polygon class="st2" points="92.13,128.67 18.21,88.99 18.62,88.26 			"/>
			<polygon class="st2" points="92.13,128.67 15.87,93.71 16.23,92.95 			"/>
			<polygon class="st2" points="92.13,128.67 13.82,98.57 14.13,97.79 			"/>
			<polygon class="st2" points="92.13,128.67 12.09,103.55 12.35,102.75 			"/>
			<polygon class="st2" points="92.13,128.67 10.67,108.62 10.88,107.81 			"/>
			<polygon class="st2" points="92.13,128.67 9.57,113.78 9.73,112.95 			"/>
			<polygon class="st2" points="92.13,128.67 8.8,118.99 8.91,118.15 			"/>
			<polygon class="st2" points="92.13,128.67 8.36,124.24 8.41,123.4 			"/>
			<polygon class="st2" points="92.13,128.67 8.24,129.51 8.24,128.67 			"/>
			<polygon class="st2" points="92.13,128.67 8.46,134.77 8.41,133.94 			"/>
			<polygon class="st2" points="92.13,128.67 9.01,140.02 8.91,139.18 			"/>
			<polygon class="st2" points="92.13,128.67 9.89,145.21 9.73,144.39 			"/>
			<polygon class="st2" points="92.13,128.67 11.09,150.34 10.88,149.53 			"/>
			<polygon class="st2" points="92.13,128.67 12.61,155.39 12.35,154.59 			"/>
			<polygon class="st2" points="92.13,128.67 14.44,160.33 14.13,159.55 			"/>
			<polygon class="st2" points="92.13,128.67 16.58,165.14 16.23,164.38 			"/>
			<polygon class="st2" points="92.13,128.67 19.02,169.82 18.62,169.08 			"/>
			<polygon class="st2" points="92.13,128.67 21.75,174.32 21.3,173.61 			"/>
			<polygon class="st2" points="92.13,128.67 24.76,178.65 24.26,177.97 			"/>
			<polygon class="st2" points="92.13,128.67 28.03,182.78 27.49,182.14 			"/>
			<polygon class="st2" points="92.13,128.67 31.55,186.7 30.98,186.09 			"/>
			<polygon class="st2" points="92.13,128.67 35.32,190.39 34.7,189.82 			"/>
			<polygon class="st2" points="92.13,128.67 39.3,193.84 38.66,193.3 			"/>
			<polygon class="st2" points="92.13,128.67 43.5,197.02 42.82,196.53 			"/>
			<polygon class="st2" points="92.13,128.67 47.89,199.94 47.18,199.49 			"/>
			<polygon class="st2" points="92.13,128.67 52.45,202.58 51.72,202.17 			"/>
			<polygon class="st2" points="92.13,128.67 57.17,204.93 56.41,204.57 			"/>
			<polygon class="st2" points="92.13,128.67 62.03,206.97 61.25,206.66 			"/>
			<polygon class="st2" points="92.13,128.67 67,208.7 66.2,208.44 			"/>
			<polygon class="st2" points="92.13,128.67 72.08,210.12 71.27,209.92 			"/>
			<polygon class="st2" points="92.13,128.67 77.23,211.22 76.41,211.06 			"/>
			<polygon class="st2" points="92.13,128.67 82.45,211.99 81.61,211.89 			"/>
			<polygon class="st2" points="92.13,128.67 87.7,212.44 86.86,212.38 			"/>
			<polygon class="st2" points="92.13,128.67 92.97,212.55 92.13,212.55 			"/>
			<polygon class="st2" points="92.13,128.67 98.23,212.33 97.39,212.38 			"/>
			<polygon class="st2" points="92.13,128.67 103.47,211.78 102.64,211.89 			"/>
			<polygon class="st2" points="92.13,128.67 108.67,210.91 107.84,211.06 			"/>
			<polygon class="st2" points="92.13,128.67 113.8,209.71 112.99,209.92 			"/>
			<polygon class="st2" points="92.13,128.67 118.85,208.19 118.05,208.44 			"/>
			<polygon class="st2" points="92.13,128.67 123.79,206.35 123.01,206.66 			"/>
			<polygon class="st2" points="92.13,128.67 128.6,204.21 127.84,204.57 			"/>
			<polygon class="st2" points="92.13,128.67 133.27,201.77 132.54,202.17 			"/>
			<polygon class="st2" points="92.13,128.67 137.78,199.04 137.07,199.49 			"/>
			<polygon class="st2" points="92.13,128.67 142.11,196.04 141.43,196.53 			"/>
			<polygon class="st2" points="92.13,128.67 146.24,192.76 145.59,193.3 			"/>
			<polygon class="st2" points="92.13,128.67 150.16,189.24 149.55,189.82 			"/>
			<polygon class="st2" points="92.13,128.67 153.85,185.48 153.27,186.09 			"/>
			<polygon class="st2" points="92.13,128.67 157.29,181.49 156.76,182.14 			"/>
			<polygon class="st2" points="92.13,128.67 160.48,177.29 159.99,177.97 			"/>
			<polygon class="st2" points="92.13,128.67 163.4,172.9 162.95,173.61 			"/>
			<polygon class="st2" points="92.13,128.67 166.04,168.34 165.63,169.08 			"/>
			<polygon class="st2" points="92.13,128.67 168.38,163.62 168.02,164.38 			"/>
			<polygon class="st2" points="92.13,128.67 170.43,158.77 170.12,159.55 			"/>
			<polygon class="st2" points="92.13,128.67 172.16,153.79 171.9,154.59 			"/>
			<polygon class="st2" points="92.13,128.67 173.58,148.71 173.37,149.53 			"/>
			<polygon class="st2" points="92.13,128.67 174.68,143.56 174.52,144.39 			"/>
			<polygon class="st2" points="92.13,128.67 175.45,138.35 175.35,139.18 			"/>
			<polygon class="st2" points="92.13,128.67 175.9,133.1 175.84,133.94 			"/>
			<polygon class="st2" points="92.13,128.67 176.01,127.83 176.01,128.67 			"/>
			<polygon class="st2" points="92.13,128.67 175.79,122.56 175.84,123.4 			"/>
			<polygon class="st2" points="92.13,128.67 175.24,117.32 175.35,118.15 			"/>
			<polygon class="st2" points="92.13,128.67 174.37,112.12 174.52,112.95 			"/>
			<polygon class="st2" points="92.13,128.67 173.16,106.99 173.37,107.81 			"/>
			<polygon class="st2" points="92.13,128.67 171.64,101.95 171.9,102.75 			"/>
			<polygon class="st2" points="92.13,128.67 169.81,97.01 170.12,97.79 			"/>
			<polygon class="st2" points="92.13,128.67 167.67,92.19 168.02,92.95 			"/>
			<polygon class="st2" points="92.13,128.67 165.23,87.52 165.63,88.26 			"/>
			<polygon class="st2" points="92.13,128.67 162.5,83.01 162.95,83.72 			"/>
			<polygon class="st2" points="92.13,128.67 159.49,78.68 159.99,79.36 			"/>
			<polygon class="st2" points="92.13,128.67 156.22,74.55 156.76,75.2 			"/>
			<polygon class="st2" points="92.13,128.67 152.7,70.63 153.27,71.25 			"/>
			<polygon class="st2" points="92.13,128.67 148.93,66.95 149.55,67.52 			"/>
			<polygon class="st2" points="92.13,128.67 144.95,63.5 145.59,64.04 			"/>
			<polygon class="st2" points="92.13,128.67 140.75,60.31 141.43,60.81 			"/>
			<polygon class="st2" points="92.13,128.67 136.36,57.39 137.07,57.84 			"/>
			<polygon class="st2" points="92.13,128.67 131.8,54.76 132.54,55.16 			"/>
			<polygon class="st2" points="92.13,128.67 127.08,52.41 127.84,52.77 			"/>
			<polygon class="st2" points="92.13,128.67 122.22,50.37 123.01,50.68 			"/>
			<polygon class="st2" points="92.13,128.67 117.25,48.63 118.05,48.89 			"/>
			<polygon class="st2" points="92.13,128.67 112.17,47.21 112.99,47.42 			"/>
			<polygon class="st2" points="92.13,128.67 107.02,46.11 107.84,46.27 			"/>
			<polygon class="st2" points="92.13,128.67 101.81,45.34 102.64,45.45 			"/>
			<polygon class="st2" points="92.13,128.67 96.55,44.9 97.39,44.95 			"/>
		</g>
		<g class="st3">
			<polygon class="st2" points="92.13,128.67 87.95,46.37 88.77,46.34 			"/>
			<polygon class="st2" points="92.13,128.67 93.12,46.27 93.95,46.29 			"/>
			<polygon class="st2" points="92.13,128.67 82.79,46.8 83.61,46.71 			"/>
			<polygon class="st2" points="92.13,128.67 77.67,47.55 78.48,47.41 			"/>
			<polygon class="st2" points="92.13,128.67 72.6,48.61 73.4,48.43 			"/>
			<polygon class="st2" points="92.13,128.67 67.61,50 68.4,49.76 			"/>
			<polygon class="st2" points="92.13,128.67 62.72,51.69 63.49,51.41 			"/>
			<polygon class="st2" points="92.13,128.67 57.95,53.69 58.7,53.36 			"/>
			<polygon class="st2" points="92.13,128.67 53.31,55.99 54.04,55.6 			"/>
			<polygon class="st2" points="92.13,128.67 48.82,58.57 49.52,58.14 			"/>
			<polygon class="st2" points="92.13,128.67 44.5,61.42 45.18,60.95 			"/>
			<polygon class="st2" points="92.13,128.67 40.37,64.55 41.02,64.03 			"/>
			<polygon class="st2" points="92.13,128.67 36.45,67.92 37.06,67.37 			"/>
			<polygon class="st2" points="92.13,128.67 32.74,71.54 33.32,70.95 			"/>
			<polygon class="st2" points="92.13,128.67 29.27,75.38 29.82,74.76 			"/>
			<polygon class="st2" points="92.13,128.67 26.05,79.43 26.55,78.77 			"/>
			<polygon class="st2" points="92.13,128.67 23.09,83.68 23.55,82.99 			"/>
			<polygon class="st2" points="92.13,128.67 20.4,88.1 20.82,87.39 			"/>
			<polygon class="st2" points="92.13,128.67 18,92.68 18.37,91.95 			"/>
			<polygon class="st2" points="92.13,128.67 15.88,97.41 16.2,96.65 			"/>
			<polygon class="st2" points="92.13,128.67 14.07,102.26 14.34,101.48 			"/>
			<polygon class="st2" points="92.13,128.67 12.57,107.21 12.79,106.42 			"/>
			<polygon class="st2" points="92.13,128.67 11.38,112.25 11.55,111.44 			"/>
			<polygon class="st2" points="92.13,128.67 10.51,117.35 10.63,116.54 			"/>
			<polygon class="st2" points="92.13,128.67 9.96,122.5 10.03,121.68 			"/>
			<polygon class="st2" points="92.13,128.67 9.73,127.67 9.75,126.85 			"/>
			<polygon class="st2" points="92.13,128.67 9.83,132.85 9.8,132.02 			"/>
			<polygon class="st2" points="92.13,128.67 10.26,138.01 10.17,137.19 			"/>
			<polygon class="st2" points="92.13,128.67 11,143.13 10.87,142.31 			"/>
			<polygon class="st2" points="92.13,128.67 12.07,148.19 11.88,147.39 			"/>
			<polygon class="st2" points="92.13,128.67 13.46,153.18 13.22,152.39 			"/>
			<polygon class="st2" points="92.13,128.67 15.15,158.07 14.86,157.3 			"/>
			<polygon class="st2" points="92.13,128.67 17.15,162.85 16.81,162.09 			"/>
			<polygon class="st2" points="92.13,128.67 19.44,167.49 19.06,166.76 			"/>
			<polygon class="st2" points="92.13,128.67 22.02,171.98 21.6,171.27 			"/>
			<polygon class="st2" points="92.13,128.67 24.88,176.29 24.41,175.61 			"/>
			<polygon class="st2" points="92.13,128.67 28,180.42 27.49,179.77 			"/>
			<polygon class="st2" points="92.13,128.67 31.38,184.34 30.83,183.73 			"/>
			<polygon class="st2" points="92.13,128.67 35,188.05 34.41,187.47 			"/>
			<polygon class="st2" points="92.13,128.67 38.84,191.52 38.21,190.98 			"/>
			<polygon class="st2" points="92.13,128.67 42.89,194.74 42.23,194.24 			"/>
			<polygon class="st2" points="92.13,128.67 47.14,197.7 46.45,197.24 			"/>
			<polygon class="st2" points="92.13,128.67 51.56,200.39 50.84,199.98 			"/>
			<polygon class="st2" points="92.13,128.67 56.14,202.8 55.4,202.43 			"/>
			<polygon class="st2" points="92.13,128.67 60.87,204.91 60.11,204.59 			"/>
			<polygon class="st2" points="92.13,128.67 65.72,206.72 64.94,206.45 			"/>
			<polygon class="st2" points="92.13,128.67 70.67,208.23 69.88,208 			"/>
			<polygon class="st2" points="92.13,128.67 75.71,209.42 74.9,209.24 			"/>
			<polygon class="st2" points="92.13,128.67 80.81,210.29 79.99,210.17 			"/>
			<polygon class="st2" points="92.13,128.67 85.96,210.84 85.14,210.77 			"/>
			<polygon class="st2" points="92.13,128.67 91.13,211.06 90.3,211.04 			"/>
			<polygon class="st2" points="92.13,128.67 96.31,210.96 95.48,211 			"/>
			<polygon class="st2" points="92.13,128.67 101.46,210.54 100.64,210.62 			"/>
			<polygon class="st2" points="92.13,128.67 106.59,209.79 105.77,209.93 			"/>
			<polygon class="st2" points="92.13,128.67 111.65,208.72 110.85,208.91 			"/>
			<polygon class="st2" points="92.13,128.67 116.64,207.34 115.85,207.58 			"/>
			<polygon class="st2" points="92.13,128.67 121.53,205.64 120.76,205.93 			"/>
			<polygon class="st2" points="92.13,128.67 126.31,203.65 125.55,203.98 			"/>
			<polygon class="st2" points="92.13,128.67 130.95,201.35 130.21,201.73 			"/>
			<polygon class="st2" points="92.13,128.67 135.43,198.77 134.73,199.2 			"/>
			<polygon class="st2" points="92.13,128.67 139.75,195.91 139.07,196.38 			"/>
			<polygon class="st2" points="92.13,128.67 143.88,192.79 143.23,193.3 			"/>
			<polygon class="st2" points="92.13,128.67 147.8,189.41 147.19,189.96 			"/>
			<polygon class="st2" points="92.13,128.67 151.51,185.8 150.93,186.39 			"/>
			<polygon class="st2" points="92.13,128.67 154.98,181.96 154.44,182.58 			"/>
			<polygon class="st2" points="92.13,128.67 158.2,177.9 157.7,178.56 			"/>
			<polygon class="st2" points="92.13,128.67 161.16,173.66 160.7,174.35 			"/>
			<polygon class="st2" points="92.13,128.67 163.85,169.24 163.44,169.95 			"/>
			<polygon class="st2" points="92.13,128.67 166.25,164.65 165.89,165.39 			"/>
			<polygon class="st2" points="92.13,128.67 168.37,159.93 168.05,160.69 			"/>
			<polygon class="st2" points="92.13,128.67 170.18,155.08 169.91,155.86 			"/>
			<polygon class="st2" points="92.13,128.67 171.68,150.12 171.46,150.92 			"/>
			<polygon class="st2" points="92.13,128.67 172.87,145.09 172.7,145.89 			"/>
			<polygon class="st2" points="92.13,128.67 173.75,139.98 173.62,140.8 			"/>
			<polygon class="st2" points="92.13,128.67 174.3,134.84 174.23,135.66 			"/>
			<polygon class="st2" points="92.13,128.67 174.52,129.66 174.5,130.49 			"/>
			<polygon class="st2" points="92.13,128.67 174.42,124.49 174.45,125.31 			"/>
			<polygon class="st2" points="92.13,128.67 174,119.33 174.08,120.15 			"/>
			<polygon class="st2" points="92.13,128.67 173.25,114.21 173.38,115.02 			"/>
			<polygon class="st2" points="92.13,128.67 172.18,109.14 172.37,109.95 			"/>
			<polygon class="st2" points="92.13,128.67 170.8,104.15 171.03,104.94 			"/>
			<polygon class="st2" points="92.13,128.67 169.1,99.26 169.39,100.04 			"/>
			<polygon class="st2" points="92.13,128.67 167.1,94.49 167.44,95.24 			"/>
			<polygon class="st2" points="92.13,128.67 164.81,89.85 165.19,90.58 			"/>
			<polygon class="st2" points="92.13,128.67 162.23,85.36 162.65,86.07 			"/>
			<polygon class="st2" points="92.13,128.67 159.37,81.04 159.84,81.72 			"/>
			<polygon class="st2" points="92.13,128.67 156.25,76.92 156.76,77.56 			"/>
			<polygon class="st2" points="92.13,128.67 152.87,72.99 153.42,73.61 			"/>
			<polygon class="st2" points="92.13,128.67 149.26,69.29 149.84,69.87 			"/>
			<polygon class="st2" points="92.13,128.67 145.41,65.82 146.04,66.36 			"/>
			<polygon class="st2" points="92.13,128.67 141.36,62.6 142.02,63.09 			"/>
			<polygon class="st2" points="92.13,128.67 137.12,59.63 137.8,60.09 			"/>
			<polygon class="st2" points="92.13,128.67 132.69,56.95 133.41,57.36 			"/>
			<polygon class="st2" points="92.13,128.67 128.11,54.54 128.85,54.91 			"/>
			<polygon class="st2" points="92.13,128.67 123.38,52.43 124.14,52.75 			"/>
			<polygon class="st2" points="92.13,128.67 118.53,50.61 119.31,50.89 			"/>
			<polygon class="st2" points="92.13,128.67 113.58,49.11 114.38,49.33 			"/>
			<polygon class="st2" points="92.13,128.67 108.54,47.92 109.35,48.09 			"/>
			<polygon class="st2" points="92.13,128.67 103.44,47.05 104.26,47.17 			"/>
			<polygon class="st2" points="92.13,128.67 98.29,46.5 99.12,46.57 			"/>
		</g>
		<g class="st3">
			<polygon class="st2" points="92.13,128.67 89.6,46.31 90.43,46.29 			"/>
			<polygon class="st2" points="92.13,128.67 94.78,46.31 95.6,46.35 			"/>
			<polygon class="st2" points="92.13,128.67 84.44,46.63 85.26,46.56 			"/>
			<polygon class="st2" points="92.13,128.67 79.3,47.27 80.12,47.15 			"/>
			<polygon class="st2" points="92.13,128.67 74.21,48.24 75.02,48.07 			"/>
			<polygon class="st2" points="92.13,128.67 69.2,49.52 69.99,49.3 			"/>
			<polygon class="st2" points="92.13,128.67 64.27,51.12 65.05,50.85 			"/>
			<polygon class="st2" points="92.13,128.67 59.46,53.02 60.22,52.7 			"/>
			<polygon class="st2" points="92.13,128.67 54.77,55.22 55.51,54.85 			"/>
			<polygon class="st2" points="92.13,128.67 50.24,57.71 50.95,57.3 			"/>
			<polygon class="st2" points="92.13,128.67 45.86,60.48 46.55,60.02 			"/>
			<polygon class="st2" points="92.13,128.67 41.67,63.52 42.33,63.02 			"/>
			<polygon class="st2" points="92.13,128.67 37.68,66.82 38.31,66.28 			"/>
			<polygon class="st2" points="92.13,128.67 33.91,70.36 34.5,69.78 			"/>
			<polygon class="st2" points="92.13,128.67 30.36,74.13 30.91,73.51 			"/>
			<polygon class="st2" points="92.13,128.67 27.06,78.11 27.57,77.47 			"/>
			<polygon class="st2" points="92.13,128.67 24.01,82.3 24.48,81.62 			"/>
			<polygon class="st2" points="92.13,128.67 21.23,86.67 21.66,85.96 			"/>
			<polygon class="st2" points="92.13,128.67 18.74,91.2 19.12,90.47 			"/>
			<polygon class="st2" points="92.13,128.67 16.53,95.88 16.86,95.13 			"/>
			<polygon class="st2" points="92.13,128.67 14.62,100.7 14.91,99.92 			"/>
			<polygon class="st2" points="92.13,128.67 13.02,105.62 13.25,104.83 			"/>
			<polygon class="st2" points="92.13,128.67 11.72,110.63 11.91,109.83 			"/>
			<polygon class="st2" points="92.13,128.67 10.75,115.71 10.89,114.9 			"/>
			<polygon class="st2" points="92.13,128.67 10.1,120.85 10.18,120.03 			"/>
			<polygon class="st2" points="92.13,128.67 9.77,126.02 9.8,125.19 			"/>
			<polygon class="st2" points="92.13,128.67 9.76,131.19 9.75,130.37 			"/>
			<polygon class="st2" points="92.13,128.67 10.08,136.36 10.02,135.54 			"/>
			<polygon class="st2" points="92.13,128.67 10.73,141.49 10.61,140.68 			"/>
			<polygon class="st2" points="92.13,128.67 11.7,146.58 11.52,145.77 			"/>
			<polygon class="st2" points="92.13,128.67 12.98,151.6 12.76,150.8 			"/>
			<polygon class="st2" points="92.13,128.67 14.57,156.52 14.3,155.74 			"/>
			<polygon class="st2" points="92.13,128.67 16.48,161.33 16.16,160.57 			"/>
			<polygon class="st2" points="92.13,128.67 18.68,166.02 18.31,165.28 			"/>
			<polygon class="st2" points="92.13,128.67 21.17,170.56 20.75,169.84 			"/>
			<polygon class="st2" points="92.13,128.67 23.94,174.93 23.48,174.24 			"/>
			<polygon class="st2" points="92.13,128.67 26.98,179.12 26.48,178.46 			"/>
			<polygon class="st2" points="92.13,128.67 30.27,183.11 29.73,182.49 			"/>
			<polygon class="st2" points="92.13,128.67 33.81,186.89 33.24,186.3 			"/>
			<polygon class="st2" points="92.13,128.67 37.58,190.44 36.97,189.88 			"/>
			<polygon class="st2" points="92.13,128.67 41.57,193.74 40.92,193.22 			"/>
			<polygon class="st2" points="92.13,128.67 45.76,196.78 45.08,196.31 			"/>
			<polygon class="st2" points="92.13,128.67 50.12,199.56 49.42,199.13 			"/>
			<polygon class="st2" points="92.13,128.67 54.66,202.06 53.93,201.68 			"/>
			<polygon class="st2" points="92.13,128.67 59.34,204.27 58.59,203.93 			"/>
			<polygon class="st2" points="92.13,128.67 64.15,206.18 63.38,205.89 			"/>
			<polygon class="st2" points="92.13,128.67 69.07,207.78 68.28,207.54 			"/>
			<polygon class="st2" points="92.13,128.67 74.09,209.07 73.28,208.88 			"/>
			<polygon class="st2" points="92.13,128.67 79.17,210.04 78.36,209.91 			"/>
			<polygon class="st2" points="92.13,128.67 84.31,210.7 83.49,210.61 			"/>
			<polygon class="st2" points="92.13,128.67 89.47,211.03 88.65,210.99 			"/>
			<polygon class="st2" points="92.13,128.67 94.65,211.03 93.82,211.05 			"/>
			<polygon class="st2" points="92.13,128.67 99.82,210.71 98.99,210.78 			"/>
			<polygon class="st2" points="92.13,128.67 104.95,210.06 104.14,210.18 			"/>
			<polygon class="st2" points="92.13,128.67 110.04,209.1 109.23,209.27 			"/>
			<polygon class="st2" points="92.13,128.67 115.05,207.82 114.26,208.04 			"/>
			<polygon class="st2" points="92.13,128.67 119.98,206.22 119.2,206.49 			"/>
			<polygon class="st2" points="92.13,128.67 124.79,204.32 124.03,204.64 			"/>
			<polygon class="st2" points="92.13,128.67 129.48,202.12 128.74,202.48 			"/>
			<polygon class="st2" points="92.13,128.67 134.02,199.63 133.3,200.04 			"/>
			<polygon class="st2" points="92.13,128.67 138.39,196.86 137.7,197.31 			"/>
			<polygon class="st2" points="92.13,128.67 142.58,193.82 141.92,194.32 			"/>
			<polygon class="st2" points="92.13,128.67 146.57,190.52 145.94,191.06 			"/>
			<polygon class="st2" points="92.13,128.67 150.35,186.98 149.76,187.56 			"/>
			<polygon class="st2" points="92.13,128.67 153.89,183.21 153.34,183.82 			"/>
			<polygon class="st2" points="92.13,128.67 157.2,179.22 156.68,179.87 			"/>
			<polygon class="st2" points="92.13,128.67 160.24,175.04 159.77,175.72 			"/>
			<polygon class="st2" points="92.13,128.67 163.02,170.67 162.59,171.38 			"/>
			<polygon class="st2" points="92.13,128.67 165.52,166.13 165.13,166.87 			"/>
			<polygon class="st2" points="92.13,128.67 167.72,161.45 167.39,162.21 			"/>
			<polygon class="st2" points="92.13,128.67 169.63,156.64 169.35,157.41 			"/>
			<polygon class="st2" points="92.13,128.67 171.24,151.72 171,152.51 			"/>
			<polygon class="st2" points="92.13,128.67 172.53,146.71 172.34,147.51 			"/>
			<polygon class="st2" points="92.13,128.67 173.5,141.62 173.36,142.44 			"/>
			<polygon class="st2" points="92.13,128.67 174.15,136.49 174.07,137.31 			"/>
			<polygon class="st2" points="92.13,128.67 174.48,131.32 174.45,132.15 			"/>
			<polygon class="st2" points="92.13,128.67 174.49,126.14 174.51,126.97 			"/>
			<polygon class="st2" points="92.13,128.67 174.17,120.98 174.24,121.8 			"/>
			<polygon class="st2" points="92.13,128.67 173.52,115.84 173.64,116.66 			"/>
			<polygon class="st2" points="92.13,128.67 172.56,110.76 172.73,111.56 			"/>
			<polygon class="st2" points="92.13,128.67 171.27,105.74 171.49,106.54 			"/>
			<polygon class="st2" points="92.13,128.67 169.68,100.82 169.95,101.6 			"/>
			<polygon class="st2" points="92.13,128.67 167.78,96 168.09,96.76 			"/>
			<polygon class="st2" points="92.13,128.67 165.57,91.32 165.94,92.06 			"/>
			<polygon class="st2" points="92.13,128.67 163.08,86.78 163.5,87.49 			"/>
			<polygon class="st2" points="92.13,128.67 160.31,82.41 160.77,83.09 			"/>
			<polygon class="st2" points="92.13,128.67 157.27,78.22 157.77,78.87 			"/>
			<polygon class="st2" points="92.13,128.67 153.98,74.22 154.52,74.85 			"/>
			<polygon class="st2" points="92.13,128.67 150.44,70.45 151.02,71.04 			"/>
			<polygon class="st2" points="92.13,128.67 146.67,66.9 147.28,67.45 			"/>
			<polygon class="st2" points="92.13,128.67 142.68,63.6 143.33,64.11 			"/>
			<polygon class="st2" points="92.13,128.67 138.5,60.55 139.17,61.02 			"/>
			<polygon class="st2" points="92.13,128.67 134.13,57.78 134.83,58.2 			"/>
			<polygon class="st2" points="92.13,128.67 129.59,55.28 130.32,55.66 			"/>
			<polygon class="st2" points="92.13,128.67 124.91,53.07 125.66,53.41 			"/>
			<polygon class="st2" points="92.13,128.67 120.1,51.16 120.87,51.45 			"/>
			<polygon class="st2" points="92.13,128.67 115.18,49.56 115.97,49.8 			"/>
			<polygon class="st2" points="92.13,128.67 110.16,48.27 110.97,48.45 			"/>
			<polygon class="st2" points="92.13,128.67 105.08,47.29 105.89,47.43 			"/>
			<polygon class="st2" points="92.13,128.67 99.94,46.64 100.77,46.73 			"/>
		</g>
		<g>
			<path class="st4" d="M23.8,34.06c-1.17,0-1.84-0.02-2-0.05s-0.3-0.16-0.42-0.38c-0.99-1.95-1.98-3.9-2.98-5.86
				c-1.57-3.14-2.35-4.92-2.35-5.34c0-0.68,0.02-1.71,0.07-3.09c0.05-1.37,0.07-2.4,0.07-3.09c0-0.32,0.09-0.48,0.26-0.48
				c0.52,0,1.31,0.02,2.36,0.06s1.85,0.06,2.38,0.06c0.22,0,0.32,0.09,0.32,0.27c0,0.7-0.05,1.76-0.15,3.16
				c-0.1,1.41-0.15,2.46-0.15,3.16c0,0.54,0.88,2.46,2.64,5.76c0.48-0.86,1.02-1.91,1.62-3.16c0.81-1.68,1.22-2.71,1.22-3.09
				c0-0.63-0.01-1.58-0.03-2.85c-0.02-1.27-0.03-2.22-0.03-2.85c0-0.23,0.04-0.36,0.12-0.39h0.42c0.48,0,1.2-0.02,2.16-0.07
				c0.97-0.05,1.69-0.07,2.16-0.07c0.26,0,0.39,0.1,0.39,0.31c0,0.67-0.01,1.67-0.03,3.02c-0.02,1.35-0.03,2.36-0.03,3.03
				c0,0.54-0.85,2.51-2.56,5.92c-0.68,1.23-1.65,3.08-2.92,5.56c-0.09,0.19-0.15,0.3-0.18,0.32c-0.03,0.02-0.14,0.04-0.33,0.06
				C25.42,34.04,24.73,34.06,23.8,34.06z"/>
		</g>
		<g>
			<path class="st4" d="M159.84,221.06c1.17,0,1.84,0.02,2,0.05c0.16,0.04,0.3,0.16,0.42,0.38c0.99,1.95,1.98,3.9,2.97,5.86
				c1.57,3.14,2.35,4.92,2.35,5.34c0,0.68-0.02,1.71-0.07,3.09c-0.05,1.37-0.07,2.4-0.07,3.08c0,0.32-0.09,0.48-0.26,0.48
				c-0.52,0-1.31-0.02-2.36-0.07s-1.85-0.07-2.38-0.07c-0.22,0-0.32-0.09-0.32-0.27c0-0.7,0.05-1.76,0.15-3.16
				c0.1-1.41,0.15-2.46,0.15-3.16c0-0.54-0.88-2.46-2.64-5.76c-0.48,0.86-1.02,1.91-1.62,3.16c-0.81,1.68-1.22,2.71-1.22,3.09
				c0,0.63,0.01,1.58,0.03,2.85c0.02,1.27,0.03,2.22,0.03,2.85c0,0.23-0.04,0.36-0.12,0.39h-0.42c-0.48,0-1.2,0.02-2.16,0.07
				c-0.97,0.05-1.69,0.07-2.16,0.07c-0.26,0-0.39-0.1-0.39-0.31c0-0.67,0.01-1.67,0.03-3.02s0.03-2.36,0.03-3.03
				c0-0.54,0.85-2.51,2.56-5.92c0.68-1.23,1.65-3.08,2.92-5.56c0.09-0.19,0.14-0.3,0.18-0.32c0.03-0.02,0.14-0.04,0.33-0.06
				C158.23,221.08,158.91,221.06,159.84,221.06z"/>
		</g>
		<g>
			<defs>
				<circle id="SVGID_1_" cx="91.81" cy="128.93" r="82.38"/>
			</defs>
			<clipPath id="SVGID_2_">
				<use xlink:href="#SVGID_1_"  style="overflow:visible;"/>
			</clipPath>
			<rect x="124.14" y="114.9" class="st5" width="4.46" height="9.05"/>
			<polygon class="st6" points="136.16,112.76 120.32,128.6 120.32,158.98 152.02,158.98 152.02,128.6 			"/>
			<g class="st7">
				<path class="st8" d="M104.39,158.96h13.77c6.86,23.51,10.57,48.68,10.57,74.85c0,4.71-0.13,9.38-0.37,14.02H114.6
					c0.24-4.64,0.37-9.31,0.37-14.02C114.98,207.63,111.25,182.47,104.39,158.96z"/>
				<path class="st9" d="M90.64,158.96h13.77c6.86,23.51,10.57,48.68,10.57,74.85c0,4.71-0.13,9.38-0.37,14.02h-13.76
					c0.24-4.64,0.37-9.31,0.37-14.02C101.22,207.63,97.49,182.47,90.64,158.96z"/>
				<path class="st8" d="M76.88,158.96h13.77c6.86,23.51,10.57,48.68,10.57,74.85c0,4.71-0.13,9.38-0.37,14.02H87.09
					c0.24-4.64,0.37-9.31,0.37-14.02C87.46,207.63,83.73,182.47,76.88,158.96z"/>
				<path class="st9" d="M63.12,158.96h13.77c6.86,23.51,10.57,48.68,10.57,74.85c0,4.71-0.13,9.38-0.37,14.02H73.33
					c0.24-4.64,0.37-9.31,0.37-14.02C73.7,207.63,69.98,182.47,63.12,158.96z"/>
				<path class="st8" d="M159.43,158.96h13.77c6.86,23.51,10.57,48.68,10.57,74.85c0,4.71-0.13,9.38-0.37,14.02h-13.76
					c0.24-4.64,0.37-9.31,0.37-14.02C170.01,207.63,166.28,182.47,159.43,158.96z"/>
				<path class="st9" d="M145.67,158.96h13.77c6.86,23.51,10.57,48.68,10.57,74.85c0,4.71-0.13,9.38-0.37,14.02h-13.76
					c0.24-4.64,0.37-9.31,0.37-14.02C156.25,207.63,152.53,182.47,145.67,158.96z"/>
				<path class="st8" d="M131.91,158.96h13.77c6.86,23.51,10.57,48.68,10.57,74.85c0,4.71-0.13,9.38-0.37,14.02h-13.76
					c0.24-4.64,0.37-9.31,0.37-14.02C142.49,207.63,138.77,182.47,131.91,158.96z"/>
				<path class="st9" d="M118.15,158.96h13.77c6.86,23.51,10.57,48.68,10.57,74.85c0,4.71-0.13,9.38-0.37,14.02h-13.76
					c0.24-4.64,0.37-9.31,0.37-14.02C128.73,207.63,125.01,182.47,118.15,158.96z"/>
				<path class="st8" d="M49.36,158.96h13.77c6.86,23.51,10.57,48.68,10.57,74.85c0,4.71-0.13,9.38-0.37,14.02H59.57
					c0.24-4.64,0.37-9.31,0.37-14.02C59.94,207.63,56.22,182.47,49.36,158.96z"/>
				<path class="st9" d="M35.6,158.96h13.77c6.86,23.51,10.57,48.68,10.57,74.85c0,4.71-0.13,9.38-0.37,14.02H45.81
					c0.24-4.64,0.37-9.31,0.37-14.02C46.18,207.63,42.46,182.47,35.6,158.96z"/>
				<path class="st8" d="M21.84,158.96h13.77c6.86,23.51,10.57,48.68,10.57,74.85c0,4.71-0.13,9.38-0.37,14.02H32.05
					c0.24-4.64,0.37-9.31,0.37-14.02C32.43,207.63,28.7,182.47,21.84,158.96z"/>
				<path class="st9" d="M8.09,158.96h13.77c6.86,23.51,10.57,48.68,10.57,74.85c0,4.71-0.13,9.38-0.37,14.02H18.3
					c0.24-4.64,0.37-9.31,0.37-14.02C18.67,207.63,14.94,182.47,8.09,158.96z"/>
			</g>
			<polygon class="st10" points="74.57,106.67 52.31,98.9 30.06,106.67 22.55,126.16 22.55,158.96 52.31,158.96 82.08,158.96 
				82.08,126.16 			"/>
			<rect x="22.55" y="126.16" class="st11" width="59.53" height="32.79"/>
			<polygon class="st12" points="72.05,109.28 52.31,102.39 32.58,109.28 25.57,127.5 21.51,126.74 29.47,106.07 52.31,98.1 
				75.16,106.07 83.12,126.74 79.06,127.5 			"/>
			<path class="st12" d="M43.99,122.93h6.84c0.33,0,0.59-0.26,0.59-0.59v-12.55c0-0.33-0.26-0.59-0.59-0.59h-6.84
				c-0.33,0-0.59,0.26-0.59,0.59v12.55C43.4,122.67,43.67,122.93,43.99,122.93z"/>
			<path class="st12" d="M53.8,122.93h6.84c0.33,0,0.59-0.26,0.59-0.59v-12.55c0-0.33-0.26-0.59-0.59-0.59H53.8
				c-0.33,0-0.59,0.26-0.59,0.59v12.55C53.21,122.67,53.47,122.93,53.8,122.93z"/>
			<polygon class="st13" points="152.02,158.98 163.19,158.98 163.19,142.86 152.02,135.87 			"/>
			<polygon class="st12" points="136.16,117.42 118.98,134.61 118.98,128.87 136.16,111.69 153.36,128.87 153.36,134.61 			"/>
			<polygon class="st12" points="164.03,146.18 152.02,138.74 152.02,135.87 164.03,143.32 			"/>
			<rect x="40.99" y="139.17" class="st10" width="22.65" height="19.79"/>
			<rect x="123.52" y="114.41" class="st12" width="5.57" height="2.87"/>
			<circle class="st14" cx="136.01" cy="126.93" r="3.74"/>
			<rect x="138.81" y="146.44" class="st14" width="7.31" height="12.5"/>
			<rect x="126.33" y="147.67" class="st14" width="7.31" height="6.28"/>
		</g>
	</g>
</g>
</svg>
