<?xml version="1.0" encoding="utf-8"?>
<!-- Generator: Adobe Illustrator 24.1.2, SVG Export Plug-In . SVG Version: 6.00 Build 0)  -->
<svg version="1.1" xmlns="http://www.w3.org/2000/svg" xmlns:xlink="http://www.w3.org/1999/xlink" x="0px" y="0px"
	 viewBox="0 0 184.25 255.12" style="enable-background:new 0 0 184.25 255.12;" xml:space="preserve">
<style type="text/css">
	.st0{fill:#C2B59B;}
	.st1{fill:#F7E6A7;}
	.st2{fill:#F79460;}
	.st3{opacity:0.2;}
	.st4{fill:#E55850;}
	.st5{fill:#F79544;}
	.st6{fill:#BE3533;}
	.st7{fill:#282829;}
</style>
<g id="Layer_4">
</g>
<g id="Geometry">
	<g>
		<path class="st0" d="M172.25,255.12H12c-6.6,0-12-5.4-12-12V12C0,5.4,5.4,0,12,0h160.25c6.6,0,12,5.4,12,12v231.12
			C184.25,249.72,178.85,255.12,172.25,255.12z"/>
		<path class="st1" d="M172.25,255.12H12c-6.6,0-12-5.4-12-12V12C0,5.4,5.4,0,12,0h160.25c6.6,0,12,5.4,12,12v231.12
			C184.25,249.72,178.85,255.12,172.25,255.12z"/>
		<path class="st2" d="M12,246.61c-1.9,0-3.5-1.6-3.5-3.5V12c0-1.9,1.6-3.5,3.5-3.5h160.25c1.9,0,3.5,1.6,3.5,3.5v231.12
			c0,1.9-1.6,3.5-3.5,3.5H12z"/>
		<circle class="st1" cx="92.13" cy="128.67" r="89.49"/>
		<g class="st3">
			<polygon class="st2" points="92.13,128.67 86.02,45 86.86,44.95 			"/>
			<polygon class="st2" points="92.13,128.67 91.29,44.79 92.13,44.79 			"/>
			<polygon class="st2" points="92.13,128.67 80.78,45.55 81.61,45.45 			"/>
			<polygon class="st2" points="92.13,128.67 75.58,46.43 76.41,46.27 			"/>
			<polygon class="st2" points="92.13,128.67 70.45,47.63 71.27,47.42 			"/>
			<polygon class="st2" points="92.13,128.67 65.41,49.15 66.2,48.89 			"/>
			<polygon class="st2" points="92.13,128.67 60.47,50.99 61.25,50.68 			"/>
			<polygon class="st2" points="92.13,128.67 55.65,53.13 56.41,52.77 			"/>
			<polygon class="st2" points="92.13,128.67 50.98,55.57 51.72,55.16 			"/>
			<polygon class="st2" points="92.13,128.67 46.47,58.29 47.18,57.84 			"/>
			<polygon class="st2" points="92.13,128.67 42.14,61.3 42.82,60.81 			"/>
			<polygon class="st2" points="92.13,128.67 38.01,64.57 38.66,64.04 			"/>
			<polygon class="st2" points="92.13,128.67 34.09,68.1 34.7,67.52 			"/>
			<polygon class="st2" points="92.13,128.67 30.4,71.86 30.98,71.25 			"/>
			<polygon class="st2" points="92.13,128.67 26.96,75.85 27.49,75.2 			"/>
			<polygon class="st2" points="92.13,128.67 23.77,80.04 24.26,79.36 			"/>
			<polygon class="st2" points="92.13,128.67 20.85,84.43 21.3,83.72 			"/>
			<polygon class="st2" points="92.13,128.67 18.21,88.99 18.62,88.26 			"/>
			<polygon class="st2" points="92.13,128.67 15.87,93.71 16.23,92.95 			"/>
			<polygon class="st2" points="92.13,128.67 13.82,98.57 14.13,97.79 			"/>
			<polygon class="st2" points="92.13,128.67 12.09,103.55 12.35,102.75 			"/>
			<polygon class="st2" points="92.13,128.67 10.67,108.62 10.88,107.81 			"/>
			<polygon class="st2" points="92.13,128.67 9.57,113.78 9.73,112.95 			"/>
			<polygon class="st2" points="92.13,128.67 8.8,118.99 8.91,118.15 			"/>
			<polygon class="st2" points="92.13,128.67 8.36,124.24 8.41,123.4 			"/>
			<polygon class="st2" points="92.13,128.67 8.24,129.51 8.24,128.67 			"/>
			<polygon class="st2" points="92.13,128.67 8.46,134.77 8.41,133.94 			"/>
			<polygon class="st2" points="92.13,128.67 9.01,140.02 8.91,139.18 			"/>
			<polygon class="st2" points="92.13,128.67 9.89,145.21 9.73,144.39 			"/>
			<polygon class="st2" points="92.13,128.67 11.09,150.34 10.88,149.53 			"/>
			<polygon class="st2" points="92.13,128.67 12.61,155.39 12.35,154.59 			"/>
			<polygon class="st2" points="92.13,128.67 14.44,160.33 14.13,159.55 			"/>
			<polygon class="st2" points="92.13,128.67 16.58,165.14 16.23,164.38 			"/>
			<polygon class="st2" points="92.13,128.67 19.02,169.82 18.62,169.08 			"/>
			<polygon class="st2" points="92.13,128.67 21.75,174.32 21.3,173.61 			"/>
			<polygon class="st2" points="92.13,128.67 24.76,178.65 24.26,177.97 			"/>
			<polygon class="st2" points="92.13,128.67 28.03,182.78 27.49,182.14 			"/>
			<polygon class="st2" points="92.13,128.67 31.55,186.7 30.98,186.09 			"/>
			<polygon class="st2" points="92.13,128.67 35.32,190.39 34.7,189.82 			"/>
			<polygon class="st2" points="92.13,128.67 39.3,193.84 38.66,193.3 			"/>
			<polygon class="st2" points="92.13,128.67 43.5,197.02 42.82,196.53 			"/>
			<polygon class="st2" points="92.13,128.67 47.89,199.94 47.18,199.49 			"/>
			<polygon class="st2" points="92.13,128.67 52.45,202.58 51.72,202.17 			"/>
			<polygon class="st2" points="92.13,128.67 57.17,204.93 56.41,204.57 			"/>
			<polygon class="st2" points="92.13,128.67 62.03,206.97 61.25,206.66 			"/>
			<polygon class="st2" points="92.13,128.67 67,208.7 66.2,208.44 			"/>
			<polygon class="st2" points="92.13,128.67 72.08,210.12 71.27,209.92 			"/>
			<polygon class="st2" points="92.13,128.67 77.23,211.22 76.41,211.06 			"/>
			<polygon class="st2" points="92.13,128.67 82.45,211.99 81.61,211.89 			"/>
			<polygon class="st2" points="92.13,128.67 87.7,212.44 86.86,212.38 			"/>
			<polygon class="st2" points="92.13,128.67 92.97,212.55 92.13,212.55 			"/>
			<polygon class="st2" points="92.13,128.67 98.23,212.33 97.39,212.38 			"/>
			<polygon class="st2" points="92.13,128.67 103.47,211.78 102.64,211.89 			"/>
			<polygon class="st2" points="92.13,128.67 108.67,210.91 107.84,211.06 			"/>
			<polygon class="st2" points="92.13,128.67 113.8,209.71 112.99,209.92 			"/>
			<polygon class="st2" points="92.13,128.67 118.85,208.19 118.05,208.44 			"/>
			<polygon class="st2" points="92.13,128.67 123.79,206.35 123.01,206.66 			"/>
			<polygon class="st2" points="92.13,128.67 128.6,204.21 127.84,204.57 			"/>
			<polygon class="st2" points="92.13,128.67 133.27,201.77 132.54,202.17 			"/>
			<polygon class="st2" points="92.13,128.67 137.78,199.04 137.07,199.49 			"/>
			<polygon class="st2" points="92.13,128.67 142.11,196.04 141.43,196.53 			"/>
			<polygon class="st2" points="92.13,128.67 146.24,192.76 145.59,193.3 			"/>
			<polygon class="st2" points="92.13,128.67 150.16,189.24 149.55,189.82 			"/>
			<polygon class="st2" points="92.13,128.67 153.85,185.48 153.27,186.09 			"/>
			<polygon class="st2" points="92.13,128.67 157.29,181.49 156.76,182.14 			"/>
			<polygon class="st2" points="92.13,128.67 160.48,177.29 159.99,177.97 			"/>
			<polygon class="st2" points="92.13,128.67 163.4,172.9 162.95,173.61 			"/>
			<polygon class="st2" points="92.13,128.67 166.04,168.34 165.63,169.08 			"/>
			<polygon class="st2" points="92.13,128.67 168.38,163.62 168.02,164.38 			"/>
			<polygon class="st2" points="92.13,128.67 170.43,158.77 170.12,159.55 			"/>
			<polygon class="st2" points="92.13,128.67 172.16,153.79 171.9,154.59 			"/>
			<polygon class="st2" points="92.13,128.67 173.58,148.71 173.37,149.53 			"/>
			<polygon class="st2" points="92.13,128.67 174.68,143.56 174.52,144.39 			"/>
			<polygon class="st2" points="92.13,128.67 175.45,138.35 175.35,139.18 			"/>
			<polygon class="st2" points="92.13,128.67 175.9,133.1 175.84,133.94 			"/>
			<polygon class="st2" points="92.13,128.67 176.01,127.83 176.01,128.67 			"/>
			<polygon class="st2" points="92.13,128.67 175.79,122.56 175.84,123.4 			"/>
			<polygon class="st2" points="92.13,128.67 175.24,117.32 175.35,118.15 			"/>
			<polygon class="st2" points="92.13,128.67 174.37,112.12 174.52,112.95 			"/>
			<polygon class="st2" points="92.13,128.67 173.16,106.99 173.37,107.81 			"/>
			<polygon class="st2" points="92.13,128.67 171.64,101.95 171.9,102.75 			"/>
			<polygon class="st2" points="92.13,128.67 169.81,97.01 170.12,97.79 			"/>
			<polygon class="st2" points="92.13,128.67 167.67,92.19 168.02,92.95 			"/>
			<polygon class="st2" points="92.13,128.67 165.23,87.52 165.63,88.26 			"/>
			<polygon class="st2" points="92.13,128.67 162.5,83.01 162.95,83.72 			"/>
			<polygon class="st2" points="92.13,128.67 159.49,78.68 159.99,79.36 			"/>
			<polygon class="st2" points="92.13,128.67 156.22,74.55 156.76,75.2 			"/>
			<polygon class="st2" points="92.13,128.67 152.7,70.63 153.27,71.25 			"/>
			<polygon class="st2" points="92.13,128.67 148.93,66.95 149.55,67.52 			"/>
			<polygon class="st2" points="92.13,128.67 144.95,63.5 145.59,64.04 			"/>
			<polygon class="st2" points="92.13,128.67 140.75,60.31 141.43,60.81 			"/>
			<polygon class="st2" points="92.13,128.67 136.36,57.39 137.07,57.84 			"/>
			<polygon class="st2" points="92.13,128.67 131.8,54.76 132.54,55.16 			"/>
			<polygon class="st2" points="92.13,128.67 127.08,52.41 127.84,52.77 			"/>
			<polygon class="st2" points="92.13,128.67 122.22,50.37 123.01,50.68 			"/>
			<polygon class="st2" points="92.13,128.67 117.25,48.63 118.05,48.89 			"/>
			<polygon class="st2" points="92.13,128.67 112.17,47.21 112.99,47.42 			"/>
			<polygon class="st2" points="92.13,128.67 107.02,46.11 107.84,46.27 			"/>
			<polygon class="st2" points="92.13,128.67 101.81,45.34 102.64,45.45 			"/>
			<polygon class="st2" points="92.13,128.67 96.55,44.9 97.39,44.95 			"/>
		</g>
		<g class="st3">
			<polygon class="st2" points="92.13,128.67 87.95,46.37 88.77,46.34 			"/>
			<polygon class="st2" points="92.13,128.67 93.12,46.27 93.95,46.29 			"/>
			<polygon class="st2" points="92.13,128.67 82.79,46.8 83.61,46.71 			"/>
			<polygon class="st2" points="92.13,128.67 77.67,47.55 78.48,47.41 			"/>
			<polygon class="st2" points="92.13,128.67 72.6,48.61 73.4,48.43 			"/>
			<polygon class="st2" points="92.13,128.67 67.61,50 68.4,49.76 			"/>
			<polygon class="st2" points="92.13,128.67 62.72,51.69 63.49,51.41 			"/>
			<polygon class="st2" points="92.13,128.67 57.95,53.69 58.7,53.36 			"/>
			<polygon class="st2" points="92.13,128.67 53.31,55.99 54.04,55.6 			"/>
			<polygon class="st2" points="92.13,128.67 48.82,58.57 49.52,58.14 			"/>
			<polygon class="st2" points="92.13,128.67 44.5,61.42 45.18,60.95 			"/>
			<polygon class="st2" points="92.13,128.67 40.37,64.55 41.02,64.03 			"/>
			<polygon class="st2" points="92.13,128.67 36.45,67.92 37.06,67.37 			"/>
			<polygon class="st2" points="92.13,128.67 32.74,71.54 33.32,70.95 			"/>
			<polygon class="st2" points="92.13,128.67 29.27,75.38 29.82,74.76 			"/>
			<polygon class="st2" points="92.13,128.67 26.05,79.43 26.55,78.77 			"/>
			<polygon class="st2" points="92.13,128.67 23.09,83.68 23.55,82.99 			"/>
			<polygon class="st2" points="92.13,128.67 20.4,88.1 20.82,87.39 			"/>
			<polygon class="st2" points="92.13,128.67 18,92.68 18.37,91.95 			"/>
			<polygon class="st2" points="92.13,128.67 15.88,97.41 16.2,96.65 			"/>
			<polygon class="st2" points="92.13,128.67 14.07,102.26 14.34,101.48 			"/>
			<polygon class="st2" points="92.13,128.67 12.57,107.21 12.79,106.42 			"/>
			<polygon class="st2" points="92.13,128.67 11.38,112.25 11.55,111.44 			"/>
			<polygon class="st2" points="92.13,128.67 10.51,117.35 10.63,116.54 			"/>
			<polygon class="st2" points="92.13,128.67 9.96,122.5 10.03,121.68 			"/>
			<polygon class="st2" points="92.13,128.67 9.73,127.67 9.75,126.85 			"/>
			<polygon class="st2" points="92.13,128.67 9.83,132.85 9.8,132.02 			"/>
			<polygon class="st2" points="92.13,128.67 10.26,138.01 10.17,137.19 			"/>
			<polygon class="st2" points="92.13,128.67 11,143.13 10.87,142.31 			"/>
			<polygon class="st2" points="92.13,128.67 12.07,148.19 11.88,147.39 			"/>
			<polygon class="st2" points="92.13,128.67 13.46,153.18 13.22,152.39 			"/>
			<polygon class="st2" points="92.13,128.67 15.15,158.07 14.86,157.3 			"/>
			<polygon class="st2" points="92.13,128.67 17.15,162.85 16.81,162.09 			"/>
			<polygon class="st2" points="92.13,128.67 19.44,167.49 19.06,166.76 			"/>
			<polygon class="st2" points="92.13,128.67 22.02,171.98 21.6,171.27 			"/>
			<polygon class="st2" points="92.13,128.67 24.88,176.29 24.41,175.61 			"/>
			<polygon class="st2" points="92.13,128.67 28,180.42 27.49,179.77 			"/>
			<polygon class="st2" points="92.13,128.67 31.38,184.34 30.83,183.73 			"/>
			<polygon class="st2" points="92.13,128.67 35,188.05 34.41,187.47 			"/>
			<polygon class="st2" points="92.13,128.67 38.84,191.52 38.21,190.98 			"/>
			<polygon class="st2" points="92.13,128.67 42.89,194.74 42.23,194.24 			"/>
			<polygon class="st2" points="92.13,128.67 47.14,197.7 46.45,197.24 			"/>
			<polygon class="st2" points="92.13,128.67 51.56,200.39 50.84,199.98 			"/>
			<polygon class="st2" points="92.13,128.67 56.14,202.8 55.4,202.43 			"/>
			<polygon class="st2" points="92.13,128.67 60.87,204.91 60.11,204.59 			"/>
			<polygon class="st2" points="92.13,128.67 65.72,206.72 64.94,206.45 			"/>
			<polygon class="st2" points="92.13,128.67 70.67,208.23 69.88,208 			"/>
			<polygon class="st2" points="92.13,128.67 75.71,209.42 74.9,209.24 			"/>
			<polygon class="st2" points="92.13,128.67 80.81,210.29 79.99,210.17 			"/>
			<polygon class="st2" points="92.13,128.67 85.96,210.84 85.14,210.77 			"/>
			<polygon class="st2" points="92.13,128.67 91.13,211.06 90.3,211.04 			"/>
			<polygon class="st2" points="92.13,128.67 96.31,210.96 95.48,211 			"/>
			<polygon class="st2" points="92.13,128.67 101.46,210.54 100.64,210.62 			"/>
			<polygon class="st2" points="92.13,128.67 106.59,209.79 105.77,209.93 			"/>
			<polygon class="st2" points="92.13,128.67 111.65,208.72 110.85,208.91 			"/>
			<polygon class="st2" points="92.13,128.67 116.64,207.34 115.85,207.58 			"/>
			<polygon class="st2" points="92.13,128.67 121.53,205.64 120.76,205.93 			"/>
			<polygon class="st2" points="92.13,128.67 126.31,203.65 125.55,203.98 			"/>
			<polygon class="st2" points="92.13,128.67 130.95,201.35 130.21,201.73 			"/>
			<polygon class="st2" points="92.13,128.67 135.43,198.77 134.73,199.2 			"/>
			<polygon class="st2" points="92.13,128.67 139.75,195.91 139.07,196.38 			"/>
			<polygon class="st2" points="92.13,128.67 143.88,192.79 143.23,193.3 			"/>
			<polygon class="st2" points="92.13,128.67 147.8,189.41 147.19,189.96 			"/>
			<polygon class="st2" points="92.13,128.67 151.51,185.8 150.93,186.39 			"/>
			<polygon class="st2" points="92.13,128.67 154.98,181.96 154.44,182.58 			"/>
			<polygon class="st2" points="92.13,128.67 158.2,177.9 157.7,178.56 			"/>
			<polygon class="st2" points="92.13,128.67 161.16,173.66 160.7,174.35 			"/>
			<polygon class="st2" points="92.13,128.67 163.85,169.24 163.44,169.95 			"/>
			<polygon class="st2" points="92.13,128.67 166.25,164.65 165.89,165.39 			"/>
			<polygon class="st2" points="92.13,128.67 168.37,159.93 168.05,160.69 			"/>
			<polygon class="st2" points="92.13,128.67 170.18,155.08 169.91,155.86 			"/>
			<polygon class="st2" points="92.13,128.67 171.68,150.12 171.46,150.92 			"/>
			<polygon class="st2" points="92.13,128.67 172.87,145.09 172.7,145.89 			"/>
			<polygon class="st2" points="92.13,128.67 173.75,139.98 173.62,140.8 			"/>
			<polygon class="st2" points="92.13,128.67 174.3,134.84 174.23,135.66 			"/>
			<polygon class="st2" points="92.13,128.67 174.52,129.66 174.5,130.49 			"/>
			<polygon class="st2" points="92.13,128.67 174.42,124.49 174.45,125.31 			"/>
			<polygon class="st2" points="92.13,128.67 174,119.33 174.08,120.15 			"/>
			<polygon class="st2" points="92.13,128.67 173.25,114.21 173.38,115.02 			"/>
			<polygon class="st2" points="92.13,128.67 172.18,109.14 172.37,109.95 			"/>
			<polygon class="st2" points="92.13,128.67 170.8,104.15 171.03,104.94 			"/>
			<polygon class="st2" points="92.13,128.67 169.1,99.26 169.39,100.04 			"/>
			<polygon class="st2" points="92.13,128.67 167.1,94.49 167.44,95.24 			"/>
			<polygon class="st2" points="92.13,128.67 164.81,89.85 165.19,90.58 			"/>
			<polygon class="st2" points="92.13,128.67 162.23,85.36 162.65,86.07 			"/>
			<polygon class="st2" points="92.13,128.67 159.37,81.04 159.84,81.72 			"/>
			<polygon class="st2" points="92.13,128.67 156.25,76.92 156.76,77.56 			"/>
			<polygon class="st2" points="92.13,128.67 152.87,72.99 153.42,73.61 			"/>
			<polygon class="st2" points="92.13,128.67 149.26,69.29 149.84,69.87 			"/>
			<polygon class="st2" points="92.13,128.67 145.41,65.82 146.04,66.36 			"/>
			<polygon class="st2" points="92.13,128.67 141.36,62.6 142.02,63.09 			"/>
			<polygon class="st2" points="92.13,128.67 137.12,59.63 137.8,60.09 			"/>
			<polygon class="st2" points="92.13,128.67 132.69,56.95 133.41,57.36 			"/>
			<polygon class="st2" points="92.13,128.67 128.11,54.54 128.85,54.91 			"/>
			<polygon class="st2" points="92.13,128.67 123.38,52.43 124.14,52.75 			"/>
			<polygon class="st2" points="92.13,128.67 118.53,50.61 119.31,50.89 			"/>
			<polygon class="st2" points="92.13,128.67 113.58,49.11 114.38,49.33 			"/>
			<polygon class="st2" points="92.13,128.67 108.54,47.92 109.35,48.09 			"/>
			<polygon class="st2" points="92.13,128.67 103.44,47.05 104.26,47.17 			"/>
			<polygon class="st2" points="92.13,128.67 98.29,46.5 99.12,46.57 			"/>
		</g>
		<g class="st3">
			<polygon class="st2" points="92.13,128.67 89.6,46.31 90.43,46.29 			"/>
			<polygon class="st2" points="92.13,128.67 94.78,46.31 95.6,46.35 			"/>
			<polygon class="st2" points="92.13,128.67 84.44,46.63 85.26,46.56 			"/>
			<polygon class="st2" points="92.13,128.67 79.3,47.27 80.12,47.15 			"/>
			<polygon class="st2" points="92.13,128.67 74.21,48.24 75.02,48.07 			"/>
			<polygon class="st2" points="92.13,128.67 69.2,49.52 69.99,49.3 			"/>
			<polygon class="st2" points="92.13,128.67 64.27,51.12 65.05,50.85 			"/>
			<polygon class="st2" points="92.13,128.67 59.46,53.02 60.22,52.7 			"/>
			<polygon class="st2" points="92.13,128.67 54.77,55.22 55.51,54.85 			"/>
			<polygon class="st2" points="92.13,128.67 50.24,57.71 50.95,57.3 			"/>
			<polygon class="st2" points="92.13,128.67 45.86,60.48 46.55,60.02 			"/>
			<polygon class="st2" points="92.13,128.67 41.67,63.52 42.33,63.02 			"/>
			<polygon class="st2" points="92.13,128.67 37.68,66.82 38.31,66.28 			"/>
			<polygon class="st2" points="92.13,128.67 33.91,70.36 34.5,69.78 			"/>
			<polygon class="st2" points="92.13,128.67 30.36,74.13 30.91,73.51 			"/>
			<polygon class="st2" points="92.13,128.67 27.06,78.11 27.57,77.47 			"/>
			<polygon class="st2" points="92.13,128.67 24.01,82.3 24.48,81.62 			"/>
			<polygon class="st2" points="92.13,128.67 21.23,86.67 21.66,85.96 			"/>
			<polygon class="st2" points="92.13,128.67 18.74,91.2 19.12,90.47 			"/>
			<polygon class="st2" points="92.13,128.67 16.53,95.88 16.86,95.13 			"/>
			<polygon class="st2" points="92.13,128.67 14.62,100.7 14.91,99.92 			"/>
			<polygon class="st2" points="92.13,128.67 13.02,105.62 13.25,104.83 			"/>
			<polygon class="st2" points="92.13,128.67 11.72,110.63 11.91,109.83 			"/>
			<polygon class="st2" points="92.13,128.67 10.75,115.71 10.89,114.9 			"/>
			<polygon class="st2" points="92.13,128.67 10.1,120.85 10.18,120.03 			"/>
			<polygon class="st2" points="92.13,128.67 9.77,126.02 9.8,125.19 			"/>
			<polygon class="st2" points="92.13,128.67 9.76,131.19 9.75,130.37 			"/>
			<polygon class="st2" points="92.13,128.67 10.08,136.36 10.02,135.54 			"/>
			<polygon class="st2" points="92.13,128.67 10.73,141.49 10.61,140.68 			"/>
			<polygon class="st2" points="92.13,128.67 11.7,146.58 11.52,145.77 			"/>
			<polygon class="st2" points="92.13,128.67 12.98,151.6 12.76,150.8 			"/>
			<polygon class="st2" points="92.13,128.67 14.57,156.52 14.3,155.74 			"/>
			<polygon class="st2" points="92.13,128.67 16.48,161.33 16.16,160.57 			"/>
			<polygon class="st2" points="92.13,128.67 18.68,166.02 18.31,165.28 			"/>
			<polygon class="st2" points="92.13,128.67 21.17,170.56 20.75,169.84 			"/>
			<polygon class="st2" points="92.13,128.67 23.94,174.93 23.48,174.24 			"/>
			<polygon class="st2" points="92.13,128.67 26.98,179.12 26.48,178.46 			"/>
			<polygon class="st2" points="92.13,128.67 30.27,183.11 29.73,182.49 			"/>
			<polygon class="st2" points="92.13,128.67 33.81,186.89 33.24,186.3 			"/>
			<polygon class="st2" points="92.13,128.67 37.58,190.44 36.97,189.88 			"/>
			<polygon class="st2" points="92.13,128.67 41.57,193.74 40.92,193.22 			"/>
			<polygon class="st2" points="92.13,128.67 45.76,196.78 45.08,196.31 			"/>
			<polygon class="st2" points="92.13,128.67 50.12,199.56 49.42,199.13 			"/>
			<polygon class="st2" points="92.13,128.67 54.66,202.06 53.93,201.68 			"/>
			<polygon class="st2" points="92.13,128.67 59.34,204.27 58.59,203.93 			"/>
			<polygon class="st2" points="92.13,128.67 64.15,206.18 63.38,205.89 			"/>
			<polygon class="st2" points="92.13,128.67 69.07,207.78 68.28,207.54 			"/>
			<polygon class="st2" points="92.13,128.67 74.09,209.07 73.28,208.88 			"/>
			<polygon class="st2" points="92.13,128.67 79.17,210.04 78.36,209.91 			"/>
			<polygon class="st2" points="92.13,128.67 84.31,210.7 83.49,210.61 			"/>
			<polygon class="st2" points="92.13,128.67 89.47,211.03 88.65,210.99 			"/>
			<polygon class="st2" points="92.13,128.67 94.65,211.03 93.82,211.05 			"/>
			<polygon class="st2" points="92.13,128.67 99.82,210.71 98.99,210.78 			"/>
			<polygon class="st2" points="92.13,128.67 104.95,210.06 104.14,210.18 			"/>
			<polygon class="st2" points="92.13,128.67 110.04,209.1 109.23,209.27 			"/>
			<polygon class="st2" points="92.13,128.67 115.05,207.82 114.26,208.04 			"/>
			<polygon class="st2" points="92.13,128.67 119.98,206.22 119.2,206.49 			"/>
			<polygon class="st2" points="92.13,128.67 124.79,204.32 124.03,204.64 			"/>
			<polygon class="st2" points="92.13,128.67 129.48,202.12 128.74,202.48 			"/>
			<polygon class="st2" points="92.13,128.67 134.02,199.63 133.3,200.04 			"/>
			<polygon class="st2" points="92.13,128.67 138.39,196.86 137.7,197.31 			"/>
			<polygon class="st2" points="92.13,128.67 142.58,193.82 141.92,194.32 			"/>
			<polygon class="st2" points="92.13,128.67 146.57,190.52 145.94,191.06 			"/>
			<polygon class="st2" points="92.13,128.67 150.35,186.98 149.76,187.56 			"/>
			<polygon class="st2" points="92.13,128.67 153.89,183.21 153.34,183.82 			"/>
			<polygon class="st2" points="92.13,128.67 157.2,179.22 156.68,179.87 			"/>
			<polygon class="st2" points="92.13,128.67 160.24,175.04 159.77,175.72 			"/>
			<polygon class="st2" points="92.13,128.67 163.02,170.67 162.59,171.38 			"/>
			<polygon class="st2" points="92.13,128.67 165.52,166.13 165.13,166.87 			"/>
			<polygon class="st2" points="92.13,128.67 167.72,161.45 167.39,162.21 			"/>
			<polygon class="st2" points="92.13,128.67 169.63,156.64 169.35,157.41 			"/>
			<polygon class="st2" points="92.13,128.67 171.24,151.72 171,152.51 			"/>
			<polygon class="st2" points="92.13,128.67 172.53,146.71 172.34,147.51 			"/>
			<polygon class="st2" points="92.13,128.67 173.5,141.62 173.36,142.44 			"/>
			<polygon class="st2" points="92.13,128.67 174.15,136.49 174.07,137.31 			"/>
			<polygon class="st2" points="92.13,128.67 174.48,131.32 174.45,132.15 			"/>
			<polygon class="st2" points="92.13,128.67 174.49,126.14 174.51,126.97 			"/>
			<polygon class="st2" points="92.13,128.67 174.17,120.98 174.24,121.8 			"/>
			<polygon class="st2" points="92.13,128.67 173.52,115.84 173.64,116.66 			"/>
			<polygon class="st2" points="92.13,128.67 172.56,110.76 172.73,111.56 			"/>
			<polygon class="st2" points="92.13,128.67 171.27,105.74 171.49,106.54 			"/>
			<polygon class="st2" points="92.13,128.67 169.68,100.82 169.95,101.6 			"/>
			<polygon class="st2" points="92.13,128.67 167.78,96 168.09,96.76 			"/>
			<polygon class="st2" points="92.13,128.67 165.57,91.32 165.94,92.06 			"/>
			<polygon class="st2" points="92.13,128.67 163.08,86.78 163.5,87.49 			"/>
			<polygon class="st2" points="92.13,128.67 160.31,82.41 160.77,83.09 			"/>
			<polygon class="st2" points="92.13,128.67 157.27,78.22 157.77,78.87 			"/>
			<polygon class="st2" points="92.13,128.67 153.98,74.22 154.52,74.85 			"/>
			<polygon class="st2" points="92.13,128.67 150.44,70.45 151.02,71.04 			"/>
			<polygon class="st2" points="92.13,128.67 146.67,66.9 147.28,67.45 			"/>
			<polygon class="st2" points="92.13,128.67 142.68,63.6 143.33,64.11 			"/>
			<polygon class="st2" points="92.13,128.67 138.5,60.55 139.17,61.02 			"/>
			<polygon class="st2" points="92.13,128.67 134.13,57.78 134.83,58.2 			"/>
			<polygon class="st2" points="92.13,128.67 129.59,55.28 130.32,55.66 			"/>
			<polygon class="st2" points="92.13,128.67 124.91,53.07 125.66,53.41 			"/>
			<polygon class="st2" points="92.13,128.67 120.1,51.16 120.87,51.45 			"/>
			<polygon class="st2" points="92.13,128.67 115.18,49.56 115.97,49.8 			"/>
			<polygon class="st2" points="92.13,128.67 110.16,48.27 110.97,48.45 			"/>
			<polygon class="st2" points="92.13,128.67 105.08,47.29 105.89,47.43 			"/>
			<polygon class="st2" points="92.13,128.67 99.94,46.64 100.77,46.73 			"/>
		</g>
		<g>
			<path class="st4" d="M56.45,93.27c-9.47,6.88-14.99,17.96-14.99,29.67v31.5l44.15,44.15c3.6,3.6,9.43,3.6,13.02,0l44.15-44.15
				v-22.99C142.79,92.06,97.85,63.18,56.45,93.27z"/>
			<path class="st5" d="M55.15,60.01c-6.99,10.44-11.08,22.91-11.08,36.32c0,10.89,2.7,21.16,7.46,30.24l35.53-34.64L55.15,60.01z"
				/>
			<polygon class="st4" points="87.07,91.93 55.15,60.01 78.85,99.94 			"/>
			<path class="st5" d="M129.1,60.01c6.99,10.44,11.08,22.91,11.08,36.32c0,10.89-2.7,21.16-7.46,30.24L97.19,91.93L129.1,60.01z"/>
			<polygon class="st4" points="97.19,91.93 129.1,60.01 105.4,99.94 			"/>
			<path class="st6" d="M92.13,86.99c-23.91,0-43.36,19.45-43.36,43.36v19.96l3.03,3.03h80.66l3.03-3.03v-19.96
				C135.48,106.44,116.03,86.99,92.13,86.99z"/>
			<path class="st5" d="M58.7,123.48l-17.24,17.24v13.73l28.47,28.47c1.79-2.31,3.71-4.83,5.79-7.57
				c21.51-28.39,7.62-43.66,2.45-50.37C73,118.26,63.3,119.36,58.7,123.48z"/>
			<path class="st6" d="M83.1,131.87c-0.91-1.24-1.77-2.31-2.47-3.22c-5.17-6.71-14.86-5.6-19.47-1.49l-7.18,7.18
				c-5.46,6.76-3.64,11.48,0,15.68l23.25,23.25C91.48,153.3,87.96,140.06,83.1,131.87z"/>
			<path class="st5" d="M86.31,139.24c-0.79-2.81-1.95-5.26-3.2-7.37c-0.91-1.24-1.77-2.31-2.47-3.22c-2-2.6-4.68-4.01-7.48-4.55
				c-7.1,0.14-12.82,5.93-12.82,13.07c0,7.22,5.86,13.08,13.08,13.08C79.92,150.25,85.31,145.48,86.31,139.24z"/>
			<path class="st1" d="M83.1,131.87c-0.91-1.24-1.77-2.31-2.47-3.22c-2-2.6-4.68-4.01-7.48-4.55c-0.56,0.01-1.11,0.07-1.65,0.15
				c-2.51,1.58-4.19,4.37-4.19,7.56c0,4.93,4,8.92,8.92,8.92c3.88,0,7.17-2.48,8.4-5.94C84.15,133.76,83.64,132.78,83.1,131.87z"/>
			<g>
				<path class="st6" d="M92.13,177.39c6.17,0,11.61-1.59,14.97-4.02c2.21-4.24,3.52-9.44,3.52-15.08c0-14.2-8.28-25.71-18.5-25.71
					c-10.22,0-18.5,11.51-18.5,25.71c0,5.64,1.31,10.84,3.52,15.08C80.51,175.8,85.96,177.39,92.13,177.39z"/>
			</g>
			<path class="st7" d="M80.63,128.65c-0.86-1.12-1.86-2.01-2.93-2.72c0.42,0.43,0.68,1,0.68,1.65c0,1.33-1.08,2.41-2.41,2.41
				c-0.99,0-1.84-0.6-2.21-1.45c-0.26,0.59-0.4,1.24-0.4,1.92c0,2.66,2.16,4.81,4.81,4.81c2.28,0,4.19-1.59,4.69-3.72
				C82.04,130.45,81.27,129.48,80.63,128.65z"/>
			<path class="st5" d="M125.55,123.48l17.24,17.24v13.73l-28.47,28.47c-1.79-2.31-3.71-4.83-5.79-7.57
				c-21.51-28.39-7.62-43.66-2.45-50.37C111.25,118.26,120.95,119.36,125.55,123.48z"/>
			<path class="st6" d="M101.15,131.87c0.91-1.24,1.77-2.31,2.47-3.22c5.17-6.71,14.86-5.6,19.47-1.49l7.18,7.18
				c5.46,6.76,3.64,11.48,0,15.68l-23.25,23.25C92.77,153.3,96.29,140.06,101.15,131.87z"/>
			<path class="st5" d="M97.95,139.24c0.79-2.81,1.95-5.26,3.2-7.37c0.91-1.24,1.77-2.31,2.47-3.22c2-2.6,4.68-4.01,7.48-4.55
				c7.1,0.14,12.82,5.93,12.82,13.07c0,7.22-5.86,13.08-13.08,13.08C104.33,150.25,98.94,145.48,97.95,139.24z"/>
			<path class="st1" d="M101.15,131.87c0.91-1.24,1.77-2.31,2.47-3.22c2-2.6,4.68-4.01,7.48-4.55c0.56,0.01,1.11,0.07,1.65,0.15
				c2.51,1.58,4.19,4.37,4.19,7.56c0,4.93-4,8.92-8.92,8.92c-3.88,0-7.17-2.48-8.4-5.94C100.1,133.76,100.61,132.78,101.15,131.87z"
				/>
			<path class="st7" d="M103.62,128.65c0.86-1.12,1.86-2.01,2.93-2.72c-0.42,0.43-0.68,1-0.68,1.65c0,1.33,1.08,2.41,2.41,2.41
				c0.99,0,1.84-0.6,2.21-1.45c0.26,0.59,0.4,1.24,0.4,1.92c0,2.66-2.16,4.81-4.81,4.81c-2.28,0-4.19-1.59-4.69-3.72
				C102.21,130.45,102.98,129.48,103.62,128.65z"/>
			<path class="st4" d="M99.61,134.78c-3.88,8.3-5.19,20.84,7.49,38.6l0.19-0.38c2.11-4.17,3.33-9.24,3.33-14.72
				C110.62,147.79,106.1,138.77,99.61,134.78z"/>
			<path class="st4" d="M73.63,158.28c0,5.48,1.23,10.55,3.33,14.72l0.19,0.38c12.67-17.77,11.36-30.31,7.49-38.6
				C78.16,138.77,73.63,147.79,73.63,158.28z"/>
			<ellipse class="st7" cx="92.13" cy="165.39" rx="8.58" ry="6.45"/>
		</g>
		<g>
			<path class="st7" d="M39.54,22.43c0,0.03-0.81,1.77-2.42,5.24c-1.64,3.53-2.57,5.52-2.81,5.96c-0.08,0.16-0.13,0.24-0.14,0.26
				c-0.03,0.04-0.12,0.08-0.25,0.12c-0.22,0.05-0.83,0.08-1.84,0.08c-0.94,0-1.52-0.03-1.73-0.08c-0.17-0.04-0.28-0.08-0.31-0.1
				c-0.03-0.03-0.09-0.11-0.17-0.25c-0.05-0.1-0.3-0.71-0.74-1.83l-1.42-3.61l-1.44,3.65c-0.15,0.42-0.39,1.01-0.73,1.79
				c-0.09,0.15-0.15,0.24-0.18,0.27s-0.13,0.06-0.3,0.08c-0.29,0.05-0.86,0.08-1.7,0.08c-1.04,0-1.66-0.03-1.87-0.08
				c-0.15-0.03-0.27-0.16-0.36-0.38c-3.4-6.97-5.09-10.71-5.09-11.2c0-0.69,0.02-1.73,0.07-3.11c0.05-1.38,0.07-2.42,0.07-3.11
				c0-0.29,0.09-0.43,0.26-0.43c0.49,0,1.24,0.02,2.24,0.06s1.75,0.06,2.25,0.06c0.2,0,0.3,0.08,0.3,0.25c0,0.69-0.03,1.74-0.1,3.14
				c-0.06,1.4-0.1,2.44-0.1,3.14c0,0.26,0.32,1.09,0.95,2.48c0.57,1.25,0.99,2.09,1.25,2.53c0.13,0.23,0.22,0.34,0.26,0.34
				c0.07,0,0.25-0.42,0.53-1.25c0.81-2.33,1.23-3.71,1.25-4.13c0.03-0.8,0.04-1.81,0.01-3.04c-0.03-1.78-0.04-2.79-0.04-3.05
				c0-0.16,0.01-0.26,0.04-0.29c0.03-0.03,0.12-0.06,0.29-0.08c0.44-0.05,1.2-0.08,2.29-0.08c1.65,0,2.48,0.12,2.48,0.35
				c0,0.58-0.02,1.48-0.06,2.7c-0.04,1.19-0.06,2.09-0.05,2.7v0.66c0,0.44,0.45,1.85,1.34,4.22c0.3,0.82,0.48,1.23,0.55,1.23
				c0.04,0,0.13-0.11,0.26-0.34c0.24-0.42,0.63-1.26,1.17-2.52c0.6-1.37,0.9-2.18,0.9-2.44c0-0.7-0.03-1.75-0.1-3.15
				c-0.06-1.4-0.1-2.44-0.1-3.14c0-0.16,0.1-0.23,0.3-0.23c0.51,0,1.28-0.02,2.31-0.06s1.8-0.06,2.31-0.06
				c0.16,0,0.25,0.17,0.25,0.52c0,0.68,0.02,1.71,0.07,3.07C39.52,20.74,39.54,21.76,39.54,22.43z"/>
		</g>
		<g>
			<path class="st7" d="M144.1,232.69c0-0.03,0.81-1.77,2.42-5.24c1.64-3.54,2.57-5.52,2.81-5.96c0.08-0.16,0.13-0.24,0.14-0.26
				c0.03-0.04,0.12-0.08,0.25-0.12c0.22-0.05,0.83-0.08,1.84-0.08c0.94,0,1.52,0.03,1.73,0.08c0.17,0.04,0.28,0.08,0.31,0.1
				c0.03,0.03,0.09,0.11,0.17,0.25c0.05,0.09,0.3,0.71,0.74,1.83l1.42,3.61l1.44-3.65c0.15-0.42,0.39-1.01,0.73-1.79
				c0.09-0.15,0.15-0.24,0.18-0.27s0.13-0.06,0.3-0.08c0.29-0.05,0.86-0.08,1.7-0.08c1.04,0,1.66,0.03,1.87,0.08
				c0.15,0.04,0.27,0.16,0.36,0.38c3.4,6.97,5.09,10.71,5.09,11.2c0,0.69-0.02,1.73-0.07,3.11c-0.05,1.38-0.07,2.42-0.07,3.11
				c0,0.29-0.09,0.43-0.26,0.43c-0.49,0-1.24-0.02-2.24-0.07s-1.75-0.07-2.25-0.07c-0.2,0-0.3-0.08-0.3-0.25
				c0-0.69,0.03-1.74,0.1-3.14c0.06-1.4,0.1-2.44,0.1-3.14c0-0.26-0.32-1.09-0.95-2.48c-0.57-1.25-0.99-2.09-1.25-2.53
				c-0.13-0.23-0.22-0.34-0.26-0.34c-0.07,0-0.25,0.42-0.53,1.25c-0.81,2.33-1.23,3.71-1.25,4.13c-0.03,0.8-0.04,1.81-0.01,3.04
				c0.03,1.78,0.04,2.79,0.04,3.05c0,0.16-0.01,0.26-0.04,0.29c-0.03,0.03-0.12,0.06-0.29,0.08c-0.44,0.05-1.2,0.08-2.29,0.08
				c-1.65,0-2.48-0.12-2.48-0.35c0-0.58,0.02-1.48,0.06-2.7c0.04-1.19,0.06-2.09,0.05-2.7v-0.66c0-0.44-0.45-1.85-1.34-4.22
				c-0.3-0.82-0.48-1.23-0.55-1.23c-0.04,0-0.13,0.11-0.26,0.34c-0.24,0.42-0.63,1.26-1.17,2.52c-0.6,1.37-0.9,2.18-0.9,2.44
				c0,0.7,0.03,1.75,0.1,3.15c0.06,1.4,0.1,2.44,0.1,3.14c0,0.16-0.1,0.23-0.3,0.23c-0.51,0-1.28,0.02-2.31,0.07
				s-1.8,0.07-2.31,0.07c-0.16,0-0.25-0.17-0.25-0.52c0-0.69-0.02-1.71-0.07-3.07C144.13,234.38,144.1,233.36,144.1,232.69z"/>
		</g>
	</g>
</g>
</svg>
